<svg version="1.1" id="Layer_1" xmlns="http://www.w3.org/2000/svg" xmlns:xlink="http://www.w3.org/1999/xlink" x="0px" y="0px" viewBox="0 0 341 173" style="enable-background:new 0 0 341 173;" xml:space="preserve">
<style type="text/css">
	.st0{fill-rule:evenodd;clip-rule:evenodd;stroke:#FFFFFF;stroke-miterlimit:10;}
	.st1{fill:none;stroke:#000000;stroke-width:0.9443;stroke-miterlimit:10;}
	.st2{fill:none;stroke:#FFFFFF;stroke-width:0.9443;stroke-miterlimit:10;}
</style>
<g>
	<path d="M154.9,65.1c0-4.2,3.4-7.6,9.2-7.6c5.6,0,8.4,3.6,8.4,3.6l-2.8,2.8c0,0-1.8-2.4-5.6-2.4c-3,0-4.8,1.8-4.8,3.6   c0,6.4,14.8,2.4,14.8,12.8c0,4.8-3.6,8.4-10,8.4c-6.8,0-10-4.4-10-4.4l2.8-2.8c0,0,2.2,3.2,7.2,3.2c3.6,0,5.6-2,5.6-4.4   C169.7,71.5,154.9,75.5,154.9,65.1z"/>
	<path d="M181.3,60.3h3.6v6.4h4v3.6h-4v10c0,1.4,1,2.4,2.4,2.4c1,0,2-0.4,2-0.4v3.6c0,0-1.2,0.4-2.8,0.4c-3.6,0-5.6-2-5.6-6v-10   h-3.6v-3.6h2c1.2,0,2-0.8,2-2.4L181.3,60.3L181.3,60.3z"/>
	<path d="M205.7,85.9v-2c0,0-2.2,2.4-5.8,2.4c-4,0-6.8-2.8-6.8-5.6c0-3.2,2.2-5.4,5.6-6l7-1.2c0-2-1.6-3.6-4-3.6c-3.4,0-5,2.6-5,2.6   l-2.6-2.6c0,0,2.6-3.6,7.6-3.6c4.8,0,8,3.2,8,7.2v12.4C209.7,85.9,205.7,85.9,205.7,85.9z M205.7,77.1v-0.4l-6.2,1   c-1.4,0.2-2.4,1.2-2.4,2.6c0,1.2,1.2,2.4,3.4,2.4C203.7,82.7,205.7,80.7,205.7,77.1z"/>
	<path d="M220.9,85.9l-7.8-19.2h4.2l5.6,14l5.6-14h4.2l-7.8,19.2H220.9z"/>
	<path d="M247.5,85.9v-2c0,0-2.2,2.4-5.8,2.4c-4,0-6.8-2.8-6.8-5.6c0-3.2,2.2-5.4,5.6-6l7-1.2c0-2-1.6-3.6-4-3.6c-3.4,0-5,2.6-5,2.6   l-2.6-2.6c0,0,2.6-3.6,7.6-3.6c4.8,0,8,3.2,8,7.2v12.4C251.5,85.9,247.5,85.9,247.5,85.9z M247.5,77.1v-0.4l-6.2,1   c-1.4,0.2-2.4,1.2-2.4,2.6c0,1.2,1.2,2.4,3.4,2.4C245.5,82.7,247.5,80.7,247.5,77.1z"/>
	<path d="M261.3,68.7c0,0,2.2-2.4,5.8-2.4c4.6,0,7.8,3.2,7.8,8.4v11.2h-4V74.7c0-2.8-2-4.8-4.6-4.8c-3,0-5,2-5,5.6v10.4h-4V66.7h4   L261.3,68.7L261.3,68.7z"/>
	<path d="M294.3,83.1c0,0-2.2,2.4-5.8,2.4c-4.8,0-9-4.2-9-9.6s4.2-9.6,9-9.6c3.6,0,5.8,2.4,5.8,2.4v-2h4v18c0,5.4-4.2,9.6-9.6,9.6   c-5.8,0-8.6-4-8.6-4l2.6-2.6c0,0,2.2,3,6,3c3.2,0,5.6-2.4,5.6-6V83.1z M288.9,81.9c2.8,0,5.4-2.6,5.4-6s-2.6-6-5.4-6   s-5.4,2.6-5.4,6S286.1,81.9,288.9,81.9z"/>
	<path d="M306.9,77.7c0.4,2.6,2.8,5,6,5c3.8,0,5.8-3,5.8-3l2.6,2.6c0,0-3,4-8.4,4s-10-4.6-10-10.2c0-5.4,4.4-9.8,9.8-9.8   s9.4,4,9.4,9.4c0,1.2-0.2,2-0.2,2H306.9z M307.1,74.3h11.1c-0.5-2.6-2.5-4.6-5.5-4.6S307.7,71.7,307.1,74.3z"/>
	<path d="M335.7,69.9c-3,0-5,2-5,5.6v10.4h-4V66.7h4v2c0,0,2.2-2.4,5.8-2.4h1v3.8C337.5,70.1,336.7,69.9,335.7,69.9z"/>
	<path d="M165.1,124.7l8,11.2h-4.4l-6.2-8.6l-3,3.2v5.4h-4v-28h4v17.4l8.2-8.6h4.8L165.1,124.7z"/>
	<path d="M185.3,116.3c5.4,0,10,4.6,10,10s-4.6,10-10,10s-10-4.6-10-10S179.9,116.3,185.3,116.3z M185.3,119.9c-3.2,0-6,2.8-6,6.4   s2.8,6.4,6,6.4s6-2.8,6-6.4S188.5,119.9,185.3,119.9z"/>
	<path d="M224.7,124.7c0-3.2-1.6-4.8-4-4.8s-4.4,2-4.4,5.6v10.4h-4v-11.2c0-3.2-1.6-4.8-4-4.8s-4.4,2-4.4,5.6v10.4h-4v-19.2h4v2   c0,0,2-2.4,5.2-2.4c4.2,0,5.8,3.2,5.8,3.2s2.2-3.2,6.6-3.2c4.4,0,7.2,2.8,7.2,8.4v11.2h-4L224.7,124.7L224.7,124.7z"/>
	<path d="M259.3,124.7c0-3.2-1.6-4.8-4-4.8s-4.4,2-4.4,5.6v10.4h-4v-11.2c0-3.2-1.6-4.8-4-4.8s-4.4,2-4.4,5.6v10.4h-4v-19.2h4v2   c0,0,2-2.4,5.2-2.4c4.2,0,5.8,3.2,5.8,3.2s2.2-3.2,6.6-3.2c4.4,0,7.2,2.8,7.2,8.4v11.2h-4L259.3,124.7L259.3,124.7z"/>
	<path d="M282.7,133.9c0,0-2.2,2.4-5.8,2.4c-4.6,0-7.8-3.2-7.8-8.4v-11.2h4v11.2c0,2.8,2,4.8,4.6,4.8c3,0,5-2,5-5.6v-10.4h4v19.2h-4   L282.7,133.9L282.7,133.9z"/>
	<path d="M296.7,118.7c0,0,2.2-2.4,5.8-2.4c4.6,0,7.8,3.2,7.8,8.4v11.2h-4v-11.2c0-2.8-2-4.8-4.6-4.8c-3,0-5,2-5,5.6v10.4h-4v-19.2   h4L296.7,118.7L296.7,118.7z"/>
	<path d="M318.9,127.7c0.4,2.6,2.8,5,6,5c3.8,0,5.8-3,5.8-3l2.6,2.6c0,0-3,4-8.4,4s-10-4.6-10-10.2c0-5.4,4.4-9.8,9.8-9.8   s9.4,4,9.4,9.4c0,1.2-0.2,2-0.2,2S318.9,127.7,318.9,127.7z M319.1,124.3h11.1c-0.5-2.6-2.5-4.6-5.5-4.6S319.7,121.7,319.1,124.3z"/>
</g>
<path class="st0" d="M18.5,101.5"/>
<path class="st0" d="M17.9,83.3"/>
<path class="st0" d="M23.9,96.1"/>
<path class="st0" d="M25.4,97"/>
<path class="st1" d="M56.1,64.8"/>
<path class="st2" d="M53.1,70.1"/>
<path class="st0" d="M83.7,86.9"/>
<path class="st0" d="M89.6,80.4"/>
<path class="st0" d="M96.6,80.8"/>
<path class="st0" d="M96.2,74"/>
<path d="M94.7,42.1c0.2-0.3,0.3-0.5,0.3-0.8c0-0.5-0.1-0.8-0.2-1.2c-0.1-0.3-0.2-0.5-0.2-0.8c0-0.8,0.3-1.4,0.9-1.9  c0.2-0.2,0.4-0.3,0.6-0.4s0.4-0.2,0.7-0.5c0.8-0.6,0.9-1.2,0.9-1.9c0-0.1,0-0.2,0-0.3c0.1-0.5,0.1-1.3-1.1-1.7l9-22l-4.8-1.9  l-1.9,4.5l-1.7-0.6l1.5-4.7l-4.7-1.4l-1.6,4.7l-1.9-0.6l1.2-4.8L87,4.5l-5.4,23.9l1.2,0.3l0.9-4.2c5.6,1.4,8.9,2.6,13.1,4.3  l-1.4,3.4c-8.3-2.7-20.4-6.1-34.5-6.3l0.1-4.2c4.9,0,11.2,0.6,17,1.5l-0.8,4.3l1.2,0.2l4.4-24l-6.2-1.1l-0.8,4.9l-2-0.3l0.4-4.9  l-5.6-0.5l-0.4,4.9l-1.9-0.1l0-4.9l-6.2-0.1l-0.4,24.2c-0.7,0-1.3,0-2,0c-0.6,0-1.2,0-1.8,0L55.8,1.7l-6.3,0.1l0.1,5l-2,0.1L47.1,2  l-5.6,0.5L42,7.4L40,7.7l-0.9-4.8L33,4l4,23.7c-1.3,0.2-2.6,0.4-3.9,0.7L27.9,5l-4.8,1.3l1.2,4.8l-2,0.6L20.8,7l-4.7,1.4l1.6,4.7  L16,13.7l-1.9-4.5l-4.8,1.9l8.9,21.6c-0.6,0.5-1,1.1-1,1.9c0,0.9,0.3,1.4,0.9,1.9c0.3,0.2,0.5,0.3,0.7,0.5s0.4,0.2,0.6,0.4  c0.6,0.6,0.9,1.1,0.9,2c0,0.3-0.1,0.5-0.2,0.8c-0.1,0.3-0.2,0.7-0.2,1.2c0,0.3,0.1,0.6,0.3,0.8H1.5l0,73.8c0,30.7,25,55.7,55.7,55.7  s55.7-25,55.7-55.7V42.1H94.7z M87.9,6.1l2.3,0.6l-1.2,4.8l4.3,1.2L94.9,8l2.3,0.7l-1.5,4.6l3.9,1.5l1.9-4.5l2.5,1l-2.5,6.2  c-4.4-1.9-8.2-3.4-15-5L87.9,6.1z M86.3,13.6c6.6,1.6,10.4,3.1,14.8,5l-1.5,3.6c-4.7-2-8.3-3.1-14.2-4.5L86.3,13.6z M84.1,23.2  l1-4.3c5.8,1.4,9.4,2.5,14,4.5l-1.7,4.2C93.2,25.9,89.8,24.6,84.1,23.2z M61.3,3L65,3l0,4.9L69.4,8l0.4-4.8l3.1,0.3l-0.4,4.9  l4.4,0.5L77.7,4l3.7,0.6L80.2,11c-7.9-1.3-15.2-1.5-19-1.5L61.3,3z M61.2,10.7c3.8,0,11,0.2,18.8,1.5l-0.8,4.1  c-6.8-1.1-13.2-1.7-18.1-1.6L61.2,10.7z M61.1,15.9c4.9,0,11.2,0.5,17.9,1.6L78.2,22c-5.9-1-12.1-1.5-17.2-1.5L61.1,15.9z   M89.4,42.1C87,41.3,73.8,37,57.4,37c-17.1,0-30.9,4.6-32.3,5.1h-3l-0.7-0.6c-0.1-0.1-0.1-0.1-0.1-0.2c0,0,0,0,0,0  c1.4-0.5,5-1.7,9.8-2.8c6.3-1.5,15.4-2.9,26.3-2.9s19.9,1.5,26.3,2.9c4.7,1.1,8.4,2.2,9.9,2.7c0,0,0,0.1,0,0.1c0,0.1,0,0.1-0.1,0.3  L93,42.1C93,42.1,89.4,42.1,89.4,42.1z M54.6,26c-5.5,0.2-11.1,0.7-16.3,1.5l-0.7-4c4.9-0.9,11.1-1.5,16.9-1.6L54.6,26z M34.5,5  l3.7-0.7L39,9.1l4.3-0.7l-0.5-4.8L46,3.3l0.5,4.9L50.9,8L50.8,3l3.8,0l0,6.4c-8,0.2-15.2,1.3-19,2L34.5,5z M35.8,12.6  c3.7-0.7,10.8-1.8,18.8-2l0,4.2c-6.9,0.2-13.3,0.8-18.1,1.7L35.8,12.6z M36.7,17.8c4.8-0.9,11.1-1.5,17.9-1.7l0,4.5  c-6,0.1-12.1,0.7-17.1,1.6L36.7,17.8z M10.9,11.9l2.5-1l1.9,4.5l3.9-1.5l-1.5-4.6L20,8.6l1.6,4.7l4.3-1.3l-1.2-4.8l2.3-0.7l1.5,6.3  c-6.7,1.7-10.6,3.2-14.9,5.1L10.9,11.9z M13.9,19.2c4.3-1.9,8.1-3.4,14.8-5l0.9,4.1c-5.9,1.5-9.5,2.5-14.2,4.6L13.9,19.2z M15.9,24  c4.6-2,8.2-3.1,14-4.5l1,4.3c-5.7,1.4-9.1,2.6-13.2,4.4L15.9,24z M18.1,29.3c4.1-1.7,7.4-3,13-4.4l0.8,3.6c-5,1-9.4,2.2-12.7,3.6  L18.1,29.3z M19.4,35.8c-0.1-0.1-0.2-0.1-0.4-0.2c-0.3-0.3-0.4-0.4-0.4-0.9c0-0.3,0.1-0.7,0.9-1.1c8.2-3.5,23.6-6.1,38.3-6.3  c16-0.3,29.6,3.7,38.4,6.6c0.2,0,0.2,0.1,0.2,0.1c0,0,0,0.2,0,0.3c0,0.1,0,0.3,0,0.5c0,0.5-0.1,0.7-0.4,0.9c0,0,0,0,0,0  c-1.6-0.5-5.7-1.7-10.6-2.9c-6.7-1.7-17.3-3.4-29-3.4C44.7,29.2,30.9,31.3,19.4,35.8z M57.4,38.3c11.9,0,22.1,2.3,27.6,3.8H29.5  C34.9,40.7,45.3,38.3,57.4,38.3z M110.4,115.9c0,29.3-23.8,53.1-53.1,53.1S4.2,145.2,4.2,115.9l0-71.1h106.2L110.4,115.9  L110.4,115.9z"/>
<path class="st0" d="M18.3,100.5"/>
<path class="st0" d="M17.8,82.3"/>
<path class="st0" d="M23.8,95.1"/>
<path class="st0" d="M25.3,96"/>
<path class="st1" d="M56,63.8"/>
<path class="st2" d="M52.9,69.1"/>
<path class="st0" d="M83.5,85.9"/>
<path class="st0" d="M89.4,79.4"/>
<path class="st0" d="M96.4,79.8"/>
<path class="st0" d="M96.1,73"/>
<path d="M100.7,118.9c-0.5-0.5-0.9-1-1.8-1.5c-0.5-0.6-1.2-1.1-2.1-1.4c-0.4-0.1-0.8-0.2-1.2-0.2c-0.5-0.5-1.1-0.9-1.8-1.1  c-0.3-0.1-0.7-0.2-1-0.2c-0.5-0.4-1.1-0.8-1.7-1c-0.5-0.2-1-0.3-1.6-0.3c-0.7-0.6-1.5-1-2.2-1.2c-0.2-0.1-0.5-0.1-0.7-0.1  c-1-0.5-2.3-0.8-3.7-0.7c-2.7,0.1-6.1,2.5-8.2,5.7c-2.4,3.7-5.1,9.8-6.1,16.3l-1.2,0c0,0,0.3-2.8,0.6-4.1c1.8-7.1,3.5-10.2,6.6-14.3  c1.2-1.7,3.2-2.7,5.5-4.9c3.3-3.2,5.7-6,7.5-9.3c0.3-0.5,0.3-0.9,0.7-0.9c0.4,0,0.5,0.6,0.6,1c0.3,1.7,0.8,2.4,2.1,3.3  c0.7,0.5,1.7,1.2,2.3,2.1c0,0,0.7-0.7,0.5-1.6c0.4,0.1,0.7,0.2,1.1,0.2c1.3,0,1.5-0.7,3-0.7c-0.3-0.5-0.5-0.8-0.6-1.3  c2.1,0,2.3-1.8,3.4-1.8c-0.8-0.6-1.3-0.8-1.9-1.2c0.4-0.4,0.7-0.4,1.2-1.1c-1.9-0.4-1.9-1.4-4.8-1.4c-0.6,0-0.7,0-1.2,0  c-0.5,0-0.8-0.3-0.8-0.8c0-1,0.7-1.3,1-1.3c3.2,0.1,3.9,1.2,6.2,1.8c0.9,0.2,2.4,0.7,3.3,0.1c-0.5,0-1-0.9-1-0.9s1,0.3,1.3,0.2  c1.8-0.3,2.1-1.8,3.4-4c-1.3,0.2-1.9,0.1-3.1-0.4c1.5-1,1.1-3.3,2.7-4.9c-0.4,0.2-0.7,0.2-1.2,0.2c-0.5,0-0.7,0-1.2,0  c-0.2,0-0.3,0.1-0.5,0.1c0.9-1.4,0.5-2.4,0.5-2.4c-1.5,1.6-3.5,1.9-4.6,1.9c-2.4,0-2.6,0.8-3.5,0.7c-0.1,0-0.7-0.3-0.7-0.9  c0.1-0.7,1.3-1.9,3.2-1.9c1.7,0,2.2-0.3,3.2-0.9c1.2-0.9,1.6-1.5,2.5-3.3l1.4-3.1c-0.5,0-1.2,0.4-2.4,0.3c0.4-0.8,0.7-1.2,0.7-2.3  c0-1.7-0.8-2.4-0.8-4.1c-0.3,0.8-1.1,1.8-2.1,1.8c0.4-1.1,0.5-1.8,0.5-3c0-2.7-1.6-3.5-1.9-5.4c-0.3,1.8-3.9,4-3.9,5.7  c0,0,0.1-1.5-1.1-2.2c-0.2,0.4-0.3,0.7-0.6,1.1c-0.9,1.2-1.8,1.7-2.6,3c-0.4,0.7-0.5,1.3-0.6,2.1c-0.8-0.5-0.5-2.3-0.5-2.5  c0-0.6-0.1-1.1-0.8-1.2c-0.3,2.3-1.4,3-1.4,5.6c0,3.4,2,4.7,2,7.4c0,0.8-0.4,2.1-1.1,2.2c-0.8,0.1-1.8-0.8-1.6-1.8  c0.2-1.2,0.4-2,0.1-3.5c-0.3-1.5-0.9-2.3-1.3-3.7c-0.1-0.5-0.2-0.7-0.3-1.2c-0.4,0.5-0.7,0.8-1.2,1.2c-1.2-1.7-2.7-1.6-3.3-3.5  c0,1.6-0.9,2.1-0.9,3.3c0,0.3,0,0.4,0.1,0.7c0,0-0.6-0.3-1.3-0.3c0.7,1.1,0.9,2.1,0.9,3.2c0,0.7-0.2,0.9-0.2,1.8  c0,0.6,0.1,1.1,0.1,1.1s-0.7-0.6-1.8-0.5c0.9,0.7,1.3,1.2,1.3,2.9c0,2.1,2.3,3,3.1,3.4c0.9,0.5,1.3,1.8,1.3,2.3  c0,0.5-0.6,0.7-0.7,0.7c-0.4,0-0.8-0.1-1.1-0.6c-0.3-0.5-0.7-1.3-1.3-1.5c-1.1-0.4-1.1-0.4-1.8-1.6c0,0-0.4,1-0.1,1.8  c0,0.1,0,0.2,0,0.2s-0.1,0-0.1-0.1c-0.6-0.4-1.6-1.1-2.8-0.8c-0.8,0.2-1.4,0.4-1.4,0.4c0,0.2,0.5,0.3,0.5,0.3c0.8,0,1.4,1.1,1.4,2.2  c0,1.8,0.8,2.6,0.8,2.6s-1.6,0-2.1,1.2c3.3,0,1.5,3.1,6.7,3.2c0.6,0,2.3,0,2.3,0c-1.8,2.8-2.8,4.5-6.3,7.7c-2.4,2.2-3.4,3-5.2,4.7  c-1.8,1.7-3.4,4.1-5.1,7.8c-1.9,4.2-3.3,8.3-4,13.5c-1.8,0-3.3-0.1-5.5-0.1c3-5.3,5-9.1,5-15.8c0-1.8-0.1-3.5-0.6-5.3  c-1.7-5.9-4.7-10-4.8-16.5c0-1.2,0.2-2.5,0.4-3.6c0.7,1.1,2.3,5.2,6.6,5.2c2.1,0,4.1-1.7,5.2-1.7l0.7,0c-0.3-0.4-0.7-0.8-0.7-0.8  c1.4-0.3,1.6-1.7,2.3-3c0.4-0.7,0.7-1.1,0.9-1.8l-1,0.3l-0.4,0c1.6-1.3,1.4-2.5,2.6-4c-1.2,0.4-3.4,0.2-3.4,0.2c0.3-0.5,0.2-1,0.2-1  c-0.4,0.3-2,1.3-2.6,1.3c-4.6,0-3.8,2.3-5.7,1.9c-0.7-0.1-0.4-0.9-0.4-1.1c0-0.5,1.4-2.1,2.4-2.4c1.6-0.5,1.9-0.4,4-0.5  c1.5-0.1,2.4-0.2,3.4-0.9c0.4-0.2,0.9-0.1,0.9-0.5c0-0.1-0.8-0.1-1-0.4c2.9-1.3,2.8-4.8,4.3-5.8c-0.6,0.2-1,0.3-1.5,0.3  c-0.7,0-1.1-0.2-1.6-0.6c0.8-0.8,1.7-1.5,1.7-3c0-0.5-0.1-0.8-0.1-1.3c0-0.4,0.1-0.6,0.1-1.1c-0.4,0.8-2.9,1.9-4.5,2.1  C71,72.8,71,72.3,71,72c0-0.5-0.6-0.7-0.4-1.1c-1.9,3.7-2.9,2.4-5.4,4.2c-0.9,0.7-1,1.1-1.8,1.9c-0.7,0.7-1.5,1.1-2.2,1.1  c-0.3,0-0.6-0.6-0.6-0.8c0-0.5,0.6-1.5,1.3-2.1c0.9-0.7,2-1,2.8-1.5c2.4-1.4,4.3-1.7,4.3-5.5c-0.2,0.2-0.4,0.3-0.7,0.4  c0.1-0.4,0.1-0.6,0.1-1.1c0-0.7-0.1-0.9-0.1-1.5c0-0.7,0.3-1.7,0.2-2.8c0,0-1,1.2-2.6,2.3c0.1-1.5-0.6-2.3-0.6-3.3  c0-1,0.2-1.2,0.6-1.9c-0.3,0-0.4,0-0.7,0c-0.5,0-0.4-0.2-1.1-0.2c-0.3,0-0.5,0-0.7,0.2c0.1-0.3,0.1-0.5,0.1-0.9  c0-1.1-0.3-1.4-0.3-2.3c0-1.1,0.2-1.6,0.5-2.3c-0.6,0.9-2,0.2-2.6,1.7c-0.3-0.5-0.4-0.7-0.4-1.3c0-1.8,1-2.5,1-4  c0-0.5-0.1-0.9-0.5-1.3c-0.2,0.4-0.5,1.2-1.6,1.8c-2.2,1.4-4,2.3-5,5.5c-0.1-0.5-0.1-0.9-0.2-1.4c0,0-3.5,1.9-3.5,6  c-0.5-0.3-0.3-1.3-0.6-1.5c-0.2,0.4-0.3,0.7-0.6,1c-0.8,1.1-1.4,2.1-1.4,3.4c0,0.4,0,0.7,0.1,1c-0.4-0.4-0.8-1.3-0.8-1.3  c-0.3,1.1-0.2,1.6-0.2,2.8c0,4,2.7,3.8,4.8,6.3c0.6,0.8,0.8,1.9,0.8,2.5c0,0.4,0,1.7-0.5,1.7c-0.2,0-0.8,0.5-1.2-0.9  c-0.4-1.2-0.8-1.6-2.2-3.1c-1.1-1.1-1.9-1.5-2.8-2.4c-0.9-0.8-0.7-2.3-1.1-3.2c-1.2,0.6-1.2,2.2-1.2,2.2c-2.5-1.4-2.8-3-3.1-4.1  c-0.8,1.5-1.1,3.4-1.1,4.7c0,1.2,0.4,2.5,1,3.8c-0.6-0.3-0.9-0.5-1.4-0.9c-0.5-0.4-0.8-0.8-1.3-1.3c0.2,1.8,0.2,2.3,0.2,3.8  c0,1.8,1.2,3.9,2.3,4.8c-0.9,0.2-1.8,0.7-1.8,0.7c2.1,0.2,3.9,1.9,7,1.9c0.8,0,3.8,1.3,3.8,2.4c0,0.1,0,0.6-0.6,0.6  c-1,0-1.5-0.5-3.5-0.8c-0.8-0.1-1.6,0-2.7-0.4c-0.8-0.3-0.8-0.7-1.9-1.1c-0.1,0-0.3,1.1,0.5,1.9c-1.8-0.1-1.7-1.3-3-1.2  c0.3,0.9,1,1.6,1.1,2.4c0.6,3.7,2.2,4.2,3.3,4.6c-0.6,0.2-0.8,0.6-1.2,1.1c-0.3,0.4-0.6,1.2-0.4,1.7c0,0,1-0.8,2.4-0.8  c2.1,0,1.8,1.4,5,1.4c4,0,5.2-3.7,6.5-4.5c-0.3,1.6-0.4,3.2-0.4,4.8c0,4.2,1.5,7.6,2.8,10.9c1.5,3.7,2.7,6.4,2.7,10.5  c0,4.8-2.4,10.2-6,15.4c-1.3-0.1-2.5-0.1-2.5-0.1c1.6-3.4,2.2-4.5,3.6-5.6c0.7-0.8,0.7-2.1-1-2.2c-1,0-2.1-0.3-2.8,0.4  c0,0-2.5,2.9-4.3,7c-0.1,0.2-2,0-2.2,0c2.6-4,4.3-7.4,4.3-11.9c0-5.9-3.8-10.6-10.3-14.5c-4.8-2.9-7.2-3.6-10-6.5  c0,0-0.2-0.2-0.2-0.2s0.2,0,0.2,0c0.5,0.1,1.2,0.2,2.1-0.1c4-1.4,3.7-4.1,5-4.2c0.2,0,0.5,0,0.7,0c-0.1-0.3-0.6-0.9-0.9-1  c0.4-0.6,0.6-1,0.9-1.6c0.3-0.5,0.7-0.7,0.9-1.3c-0.3,0.1-0.5,0.2-0.8,0.2l-0.7-0.1c-0.2,0-1,0.3-1.2,0.5c-0.1-0.2-0.1-0.6-0.2-0.8  c-0.3,0.3-1,1-1.8,1.3c-0.3,0.1-1.6,0.4-2.5,1.1c-0.9,0.7-0.5,0.9-1.5,1.2c-0.3,0.1-0.9-0.3-0.9-0.7c0-0.3-0.1-1.1,0.6-1.5  c1.3-0.7,3.5-1,4.4-1.9c1.3-1.3,2-1.8,3-2.2c-0.7,0-1.1-0.3-1.8-0.5c0.6-1.2-0.9-3.5-0.1-5.2c0.2-0.4,0.4-0.3,0.5-0.6  c-0.2-0.3-0.5-0.3-0.8-0.3c-0.2,0-0.3,0.1-0.6,0.2c0.1-0.5,0-1.2,0-1.5c-0.1-0.8-0.8-1.6-0.6-2.9c-0.6,1.1-1.7,1-2.3,2.1  c-0.2-0.2-0.3-0.4-0.6-0.5c-0.2,1.1-0.7,1.9-1.6,2.6c-0.1-0.3-1.1-0.6-1-0.8c-0.3,1.5-0.8,1.3-1.3,2.7c-0.2,0.6-0.3,1.7-0.2,2.5  c0.1,0.5-0.5,0.8-1,0.9c-0.3,0-1.1-0.2-1.3-1c-0.8-2.7,0.6-3.9,1.3-4.6c0.8-0.7,2.4-2.1,2.3-2.9c-0.1-0.5-0.2-2.7-0.2-3.4  c-0.4,0.8-0.7,1-1.8,1.4c-0.4-1.6-1.5-2-2.9-3.2c-0.6-0.5-0.8-1.2-1-2.1c-0.3,0.4-1.4,2-1.3,3.3c0.2,1.4,0.5,1.4,0.8,2.4  c0.1,0.4-0.1,0.7-0.4,0.7c-0.4-0.1-0.6-0.6-0.6-1c-0.1-0.5-0.1-1-0.2-1.8c-0.3-2.7-3.9-4.7-6.1-5.2c0.2,0.5,0.4,0.8,0.5,1.3  c0.2,1.5-1.3,2.8-1.1,4.9c0,0.1,0,0.2,0.1,0.3c-0.6-0.5-1.1-0.7-1.9-0.8c0.3,0.4,0.4,0.7,0.4,1.2c0.2,1.7-0.7,2.4-0.4,4.3  c0.1,0.8,0.7,1,1.1,1.7c-0.1,0-0.2,0.1-0.3,0.1c-0.8,0.1-1.3-0.6-2.1-0.5c0.4,0.8,0.7,0.8,1,1.7c0.3,0.9,0.3,0.8,1,1.5  c0.4,0.4,1.1,0.8,1.6,1c1,0.4,1.9,0.1,3.4,0.4c1,0.2,1.6,0.7,2.3,1.5c0.3,0.3,0.5,1,0.7,1.5c0,0.1-0.1,0.7-0.5,0.8  c-0.4,0-0.7,0-1.1-0.3c-0.8-0.6-1.4-1.3-2.2-1.7c-1.2-0.5-1.7-0.4-3-0.8c-0.4-0.2-0.8-0.5-1-0.9c-0.2-0.2-0.4-0.6-0.5-0.5  c-0.2,0.2-0.2,0.4-0.3,0.7c-0.1,0.4-0.2,0.6-0.1,1c-0.7-0.2-1.2-0.2-1.9-0.5c-0.4-0.2-0.6-0.6-1.1-0.6c0,0.1,0,0.1,0,0.2  c0.1,0.4,0.2,0.6,0.4,1c0.3,0.8,0.2,1.4,0.3,2.3c0.1,0.7,1.5,1.8,1.8,2.1c0,0-2.8-0.9-3.1-0.5c1.4,0.8,1.4,2,2.2,3.3  c0.6,0.8,1.3,1.2,2.3,1.3c-0.5,0.6-0.5,1.1-0.4,1.8c0,0.2,0.1,0.3,0.2,0.3c0.4-0.6,1.2-1.4,2-1.5c0.6-0.1,1,0,1.8-0.1  c3.2-0.4,2.4-1.2,4.1-1.5c0.5-0.1,1,0.7,1.1,1.2c0.1,0.6-0.7,1.4-1.4,1.3c-1.5-0.1-3.1,0.2-3.7,0.4c-0.9,0.4-0.9,0.4-2.1,0.8  c0.2,0.2,0.5,0.3,0.6,0.6c-0.9,0.2-1.3,0.9-1.5,1.8c0.3,0,0.5-0.1,0.8-0.1c1,0,1.6,0.1,2.4,0.5c1,0.6,1.3,1.4,2.8,1  c0,0.2,0,0.3,0,0.4c0,0.3,0.2,0.6,0.5,0.7c0.3-0.5,0-0.7,3.4-1.1c2.8-0.3,3.2-3,3.2-3c0,0.1,0.6,0.7,1,1.3  c4.3,4.9,19.8,9.6,19.8,18.4c0,5-1.9,7.8-4.3,11.5c-0.1,0-0.2,0-0.3-0.1l-1.6-0.6c1.5-2.4,3.8-6.8,3.6-11.4c-0.1-2.6-1-4.9-2.8-6.8  c-2.3-2.5-5.4-3.6-8.8-3.1c-2.6,0.4-4.7,1.5-5.6,2.9c-0.6,0.9-1,2.3-0.9,3.8c-0.2,0.2-0.3,0.4-0.4,0.6c-0.5,0.9-0.7,2.1-0.4,3.3  c-0.5,0.4-1.2,1.3-1.2,2.4c0,0.2,0,0.4,0.1,0.7c-0.7,0.7-1.2,1.8-0.8,2.9c-0.4,0.6-0.6,1.2-0.5,1.8c0.1,0.4,0.3,0.8,0.6,1.2  c-0.5,0.6-0.8,1.5-0.9,2.2c-0.2,1.1,0,2.2,0,3c0,1.2-0.9,3.7-0.9,3.7c1.3-1.2,2.5-3.5,2.4-5c0-0.4,0.2-1.5,0.2-1.5  c0.3-0.7,0.6-1.1,1-1.4c0.2,0,0.5,0.1,0.7,0.1c0.4,0,0.9-0.1,1.3-0.4c0.3-0.2,0.8-0.7,0.8-1.6c0.5-0.1,0.9-0.4,1-0.5  c0.6-0.5,0.9-1.2,0.9-1.9c0.2-0.1,0.3-0.2,0.5-0.3c0.6-0.4,0.9-1.2,0.8-2c0.1-0.1,0.3-0.1,0.4-0.2c0.7-0.5,1-1.3,1-2.4  c0.6-0.3,1-0.8,1.3-1.3c0.5-1,0.6-2.7-0.1-3.9c-0.5-0.9-1.3-1.5-2.3-1.6c-1.1-0.2-2.5,0.2-3.8,0.9c0.1-0.6,0.3-1.2,0.6-1.6  c0.7-1.1,2.3-1.9,4.5-2.2c2.8-0.4,5.4,0.5,7.3,2.6c1.5,1.6,2.3,3.5,2.3,5.7c0.2,4.3-2.1,8.5-3.5,10.7c-0.9-0.4-1.6-0.6-1.6-0.6  s-3.6,0.2-6.4,3.8c-4,5.1-3.4,9.8-8.3,14.3c10.8-1.3,27.4-1,28.5-1c4,0,4.8,3.4,7.5,8.9c0.3,0.5,1.1,0.7,2.4,0.7  c1.1,0,5.6-0.7,4.6-2.1c-1.3-2-2.3-3.8-3.8-6.9c0,0,9,0.1,18.8,1.9c5.9,1.1,12.7-13.4,14.8-16.4c0,0,0.7-1.3,1.9-2.6  c0.1-0.2,0.3-0.2,0.3-0.4c0-0.1-0.1-0.2-0.2-0.2c-1.6,0-7.5,3.1-16.1,3.1c1.8-4.5,4.3-8.1,4.3-8.7c0-0.8-1.9-1.3-4.3-1.3  c-2.2,0-3.8,0.2-4.3,1.2c-0.8,1.5-2.4,5-4.6,8.9l-1.6,0c0.7-5.1,3.6-12,5.8-15.4c1.8-2.8,4.7-4.8,6.9-4.9c0,0,0,0,0.1,0  c-1.3,0.8-2.1,2.2-2.3,3.7c-0.2,1.1-0.1,2.3,0.3,3.3c0.5,1.4,1.6,2.2,2.9,2.5c0.6,0.1,1.3,0.1,1.8-0.1c0.5,0.3,1,0.4,1.5,0.4  c0.7,0,1.3-0.1,1.8-0.4c0.2,0.1,0.4,0.1,0.6,0.1c0.1,0,0.2,0,0.2,0c0.5,0,1-0.1,1.4-0.3c0.4,0.4,0.9,0.6,1.5,0.7  c0.2,0,0.4,0.1,0.6,0.1c0.6,0,1.1-0.2,1.6-0.5c0.3,0.2,0.6,0.3,1,0.4c0.2,0.1,0.4,0.1,0.6,0.1c1.1,0,2.4-0.7,2.9-2  c0.1-0.2,0.2-0.5,0.2-0.9c0.1,0.1,0.2,0.2,0.3,0.3c0.5,0.5,1.1,0.9,1.8,1.2c0.7,0.2,1.1,0.4,1.9,0.4c0.7,0,1.6-0.7,1.7-0.7  c0,0-0.9-0.1-1.9-0.2C102.2,120.7,101.2,119.3,100.7,118.9z M25.7,129c-0.3,0.2-1,0-1.3-0.1c-0.3-0.2-0.5-0.4-0.6-0.6  c0-0.1,0-0.1,0-0.2c0.2,0.1,0.4,0.3,0.7,0.4c0.5,0.2,0.9,0.4,1.2,0.4C25.8,128.9,25.7,129,25.7,129z M27.4,127.1  c-0.4,0.4-1.2,0.3-2.2-0.1c-0.6-0.3-0.9-0.6-1-0.7c-0.2-0.4,0-0.8,0.1-1c0.2,0.2,0.5,0.4,0.9,0.6c0.9,0.5,1.7,0.7,2.4,0.8  C27.7,126.8,27.6,126.9,27.4,127.1z M28.9,124.8c-0.4,0.3-1.4,0.2-2.7-0.5c-0.5-0.3-1.1-0.7-1.1-1.2c0-0.3,0.1-0.5,0.3-0.7  c0.4,0.7,1,1.2,1.6,1.5c0.2,0.1,1.1,0.5,2.2,0.6C29,124.6,29,124.7,28.9,124.8z M30.1,122.6c-0.5,0.4-1.8,0.1-2.5-0.3  c-0.5-0.3-1.1-0.9-1.3-1.8c-0.1-0.3-0.1-0.6-0.2-0.9c0.2,0.4,0.5,0.8,0.9,1.1c1,0.9,2.2,1.3,3.4,1.3  C30.3,122.3,30.2,122.5,30.1,122.6z M30.6,116.3c0.5,0.1,0.9,0.3,1.1,0.8c0.4,0.7,0.3,1.8,0,2.4c-0.1,0.3-0.6,0.7-1.3,0.8  c-0.8,0.2-1.7-0.1-2.5-0.8c-0.6-0.5-0.9-1.3-1-2.1C28.1,116.7,29.7,116.1,30.6,116.3z M87.3,118c-0.4,1.8-1.8,2.9-3.2,2.7  c-0.8-0.1-1.3-0.6-1.7-1.4c-0.3-0.8-0.3-1.8-0.2-2.4c0.2-1.1,0.8-2,1.7-2.6c0.6-0.4,1.3-0.6,2-0.6c0.1,0.1,0.2,0.2,0.3,0.3  C86.9,114.6,87.6,116.6,87.3,118z M89.9,117.9c-0.2,1.8-1,2.8-2.3,3c0.6-0.7,1.1-1.5,1.3-2.5c0.2-1,0.1-2.3-0.3-3.4  c0.1,0,0.1,0,0.2,0C89.5,115.7,90,116.7,89.9,117.9z M92.1,118.6c-0.3,0.9-0.7,1.5-1.3,1.8c0.3-0.6,0.6-1.4,0.7-2.3  c0.1-1,0-1.8-0.4-2.6C92.2,116.1,92.5,117.2,92.1,118.6z M94.8,119.3c-0.2,0.9-0.7,2-1.8,1.8c-0.1,0-0.2-0.1-0.3-0.1  c0.5-0.5,0.9-1.2,1.1-2c0.3-0.8,0.3-1.7,0.1-2.4C94.8,117.2,95.1,118.1,94.8,119.3z M97.7,120.3c-0.3,0.7-1.1,0.9-1.5,0.8  c-0.1,0-0.2-0.1-0.3-0.1c0.2-0.4,0.4-0.8,0.5-1.3c0.2-0.7,0.2-1.4,0.1-2c0.6,0.3,1,0.6,1.2,1C98,119.3,97.8,119.9,97.7,120.3z"/>
</svg>