<svg width="1440" height="965" viewBox="0 0 1440 965" fill="none" xmlns="http://www.w3.org/2000/svg">
<g opacity="0.2">
<path d="M463.009 964C395.836 964 308.917 962.215 224.266 960.472C149.145 958.924 78.2075 957.474 26.0788 957.363C-64.2264 957.056 -304.382 961.211 -306.803 961.253V960.068C-304.382 960.068 -64.1984 955.884 26.1068 956.177C78.2495 956.275 149.257 957.739 224.308 959.273C329.083 961.434 437.413 963.651 507.245 962.48C541.139 961.797 587.264 959.608 636.09 957.279C692.445 954.602 750.717 951.841 792.504 951.339C866.604 950.46 972.499 953.082 1084.61 955.871C1216.46 959.147 1352.79 962.522 1440.82 960.054C1476.85 959.036 1523.38 954.351 1572.49 949.4C1629.19 943.683 1687.83 937.771 1731.44 937.645C1895.32 937.367 2374.91 959.817 2379.74 960.054V961.239C2374.95 961.016 1901.45 938.831 1734.68 938.831H1731.51C1687.94 938.956 1629.35 944.869 1572.67 950.586C1523.47 955.55 1476.99 960.235 1440.9 961.239C1352.85 963.707 1216.5 960.319 1084.64 957.056C972.541 954.267 866.66 951.659 792.574 952.538C750.801 953.026 692.543 955.801 636.202 958.478C587.362 960.793 541.237 962.982 507.315 963.665C493.81 963.902 478.976 964 463.009 964Z" fill="url(#paint0_linear_698_11596)" stroke="url(#paint1_linear_698_11596)" stroke-width="0.5" stroke-miterlimit="10"/>
<path d="M465.825 948.48C399.058 948.48 313.553 944.925 230.287 941.508C154.214 938.357 82.3533 935.373 27.7616 935.164C-70.9682 934.564 -304.449 942.861 -306.786 942.945V941.773C-304.449 941.689 -70.9402 933.407 27.8035 933.992C82.3813 934.201 154.284 937.186 230.385 940.351C334.824 944.688 442.818 949.178 512.846 946.612C547.356 945.343 591.76 940.937 638.794 936.279C692.938 930.897 748.929 925.347 793.277 924.343C867.755 922.642 973.93 927.857 1086.32 933.379C1217.63 939.835 1353.4 946.5 1440.86 941.745C1478.91 939.696 1522.93 930.311 1569.51 920.383C1622.97 908.976 1678.25 897.193 1725.33 896.942C1894.39 896.343 2375 941.299 2379.82 941.759L2379.71 942.903C2374.91 942.456 1900.45 898.1 1728.61 898.1H1725.34C1678.37 898.351 1623.18 910.134 1569.75 921.512C1523.12 931.454 1479.07 940.853 1440.92 942.917C1353.4 947.63 1217.6 940.964 1086.26 934.55C973.888 928.972 867.741 923.813 793.305 925.514C748.999 926.518 693.036 932.068 638.906 937.45C591.9 942.108 547.482 946.514 512.958 947.783C498.628 948.243 482.828 948.48 465.825 948.48Z" fill="url(#paint2_linear_698_11596)" stroke="url(#paint3_linear_698_11596)" stroke-width="0.5" stroke-miterlimit="10"/>
<path d="M471.591 932.904C405.286 932.904 320.69 927.661 238.334 922.557C160.511 917.747 87.0134 913.187 29.4409 912.796C-77.7274 911.932 -304.505 924.342 -306.786 924.468V923.338C-304.505 923.213 -77.6994 910.788 29.4969 911.667C87.1114 911.987 160.623 916.547 238.46 921.358C341.807 927.759 448.682 934.382 518.443 930.589C553.079 928.707 595.034 922.223 639.466 915.251C692.085 907.093 746.48 898.657 793.949 897.123C868.833 894.669 975.273 902.436 1087.98 910.663C1218.73 920.215 1353.87 930.087 1440.82 923.213C1480.91 920.075 1522.46 905.978 1566.45 891.057C1616.67 874.003 1668.61 856.378 1719.14 856.001H1722.51C1899.46 856.001 2375.01 922.557 2379.82 923.241L2379.66 924.356C2374.86 923.673 1899.41 857.131 1722.51 857.131H1719.14C1668.76 857.507 1616.98 875.105 1566.81 892.117C1522.76 907.079 1481.15 921.191 1440.86 924.342C1353.9 931.147 1218.65 921.274 1087.86 911.792C975.189 903.565 868.763 895.798 793.977 898.252C746.578 899.8 692.211 908.236 639.62 916.38C595.174 923.268 553.177 929.766 518.499 931.719C504.253 932.555 488.51 932.904 471.591 932.904Z" fill="url(#paint4_linear_698_11596)" stroke="url(#paint5_linear_698_11596)" stroke-width="0.5" stroke-miterlimit="10"/>
<path d="M477.338 917.315C411.467 917.315 327.767 910.441 246.278 903.748C170.289 897.501 91.7112 891.058 31.116 890.626C-84.5049 889.483 -304.565 905.965 -306.776 906.188L-306.86 905.086C-304.649 904.919 -84.5189 888.353 31.116 889.525C91.7532 889.957 170.359 896.413 246.376 902.646C348.674 911.013 454.457 919.742 523.981 914.75C558.743 912.254 598.403 903.706 640.371 894.656C691.325 883.682 744.013 872.345 794.603 870.198C869.864 867.032 976.612 877.337 1089.63 888.242C1219.78 900.792 1354.47 913.802 1440.75 905.086C1482.91 900.833 1521.91 881.995 1563.34 862.054C1610.33 839.395 1658.93 816.038 1712.91 815.467C1764.69 815.146 1876.31 822.55 2114.4 859.837C2256.78 882.148 2378.57 904.863 2379.78 905.1L2379.58 906.174C2378.36 905.951 2256.6 883.222 2114.24 860.925C1876.21 823.652 1764.63 816.303 1712.91 816.554C1659.18 817.07 1610.75 840.441 1563.83 863.044C1522.36 883.027 1483.22 901.907 1440.86 906.188C1421.27 908.168 1399.11 908.977 1375.09 908.977C1293.46 908.977 1190.15 899.007 1089.48 889.287C976.5 878.383 869.766 868.078 794.603 871.244C744.111 873.363 691.465 884.714 640.567 895.688C598.585 904.738 558.869 913.286 524.023 915.782C509.875 916.869 494.187 917.315 477.338 917.315Z" fill="url(#paint6_linear_698_11596)" stroke="url(#paint7_linear_698_11596)" stroke-width="0.5" stroke-miterlimit="10"/>
<path d="M483.072 901.711C417.621 901.711 334.733 893.26 254.153 884.978C176.611 877.071 96.4237 868.872 32.7917 868.328C-91.2397 866.934 -304.625 887.571 -306.766 887.85L-306.878 886.79C-304.737 886.581 -91.2957 865.874 32.7917 867.268C96.4797 867.826 176.695 876.011 254.265 884.001C355.542 894.348 460.275 905.043 529.561 898.88C564.547 895.77 601.94 885.229 641.515 874.087C690.705 860.24 741.561 845.92 795.271 843.201C870.84 839.366 977.966 852.167 1091.29 865.734C1220.95 881.254 1355.01 897.304 1440.69 886.804C1484.92 881.38 1521.5 857.8 1560.23 832.826C1604.01 804.603 1649.29 775.404 1706.69 774.762C1749.29 774.455 1811.17 780.117 1890.65 791.663C1954.21 800.894 2029.11 813.876 2113.25 830.246C2256.51 858.135 2378.54 886.525 2379.76 886.818L2379.51 887.85C2378.31 887.571 2256.29 859.167 2113.04 831.292C1878.58 785.681 1764.73 775.78 1710.15 775.78H1706.73C1649.65 776.422 1604.5 805.523 1560.86 833.663C1522.02 858.762 1485.29 882.356 1440.87 887.808C1355.06 898.322 1220.92 882.231 1091.21 866.738C977.924 853.185 870.924 840.384 795.369 844.205C741.771 846.924 690.971 861.231 641.851 875.049C602.177 886.205 564.701 896.774 529.659 899.884C515.497 901.153 499.851 901.711 483.072 901.711Z" fill="url(#paint8_linear_698_11596)" stroke="url(#paint9_linear_698_11596)" stroke-width="0.5" stroke-miterlimit="10"/>
<path d="M488.796 886.08C423.764 886.08 341.786 876.096 261.962 866.363C182.923 856.797 101.168 846.785 34.471 846.13C-98.013 844.387 -304.681 869.222 -306.752 869.473L-306.878 868.441C-304.807 868.19 -98.0549 843.341 34.471 845.084C101.238 845.753 183.006 855.724 262.088 865.359C362.371 877.588 466.069 890.222 535.159 882.929C570.299 879.22 605.578 866.726 642.915 853.506C690.23 836.773 739.154 819.455 795.985 816.108C872.03 811.632 979.31 826.943 1093 843.146C1222.11 861.566 1355.63 880.614 1440.7 868.441C1487.02 861.817 1521.1 833.455 1557.16 803.447C1597.75 769.674 1639.73 734.757 1700.53 733.99C1744.31 733.586 1807.28 740.419 1887.67 754.265C1951.96 765.351 2027.48 780.927 2112.15 800.574C2256.29 834.04 2378.57 868.106 2379.79 868.455L2379.51 869.459C2378.29 869.11 2256.04 835.016 2111.91 801.578C2027.37 781.945 1951.8 766.369 1887.51 755.297C1807.2 741.45 1744.28 734.632 1700.56 735.036C1640.12 735.789 1598.31 770.594 1557.82 804.241C1523.23 833.036 1487.44 862.807 1440.83 869.473C1420.07 872.21 1399.15 873.496 1378.22 873.321C1297.05 873.321 1193.65 858.554 1092.85 844.178C979.254 827.975 871.974 812.678 796.041 817.14C739.392 820.542 690.538 837.763 643.335 854.483C605.914 867.73 570.564 880.237 535.313 883.961C519.855 885.473 504.328 886.181 488.796 886.08Z" fill="url(#paint10_linear_698_11596)" stroke="url(#paint11_linear_698_11596)" stroke-width="0.5" stroke-miterlimit="10"/>
<path d="M493.753 870.575C430.359 870.575 351.823 859.419 269.69 847.832C189.181 836.439 105.957 824.726 36.1533 823.876C-104.769 821.854 -304.734 850.816 -306.707 851.109L-306.847 850.119C-304.846 849.826 -104.783 820.836 36.1953 822.872C106.055 823.652 189.335 835.421 269.9 846.842C373.78 861.539 471.922 875.427 540.815 867.019C576.151 862.696 609.388 848.292 644.569 833.051C689.925 813.389 736.834 793.045 796.785 789.057C873.208 783.981 980.824 801.774 1094.77 820.613C1223.35 841.864 1356.29 863.84 1440.77 850.119C1462.49 846.577 1482.97 837.388 1503.34 822.007C1521.54 808.258 1538.13 790.856 1554.14 774.025C1591.55 734.758 1630.22 694.152 1694.45 693.26C1739.43 692.8 1803.46 700.748 1884.77 716.965C1949.8 729.905 2025.96 748.075 2111.14 770.985C2256.17 810.029 2378.69 849.784 2379.83 850.188L2379.53 851.151C2378.31 850.746 2255.8 810.977 2110.84 771.961C2025.68 749.051 1949.55 730.881 1884.55 717.955C1803.31 701.808 1739.37 693.845 1694.45 694.334C1630.64 695.212 1592.12 735.664 1554.87 774.778C1538.82 791.636 1522.22 809.067 1503.94 822.872C1483.43 838.35 1462.82 847.609 1440.97 851.164C1420.72 854.209 1400.26 855.641 1379.79 855.445C1298.97 855.445 1195.47 838.336 1094.64 821.658C980.754 802.834 873.194 785.041 796.883 790.117C737.099 794.049 690.191 814.338 644.905 833.971C609.667 849.31 576.333 863.686 540.885 868.023C525.24 869.813 509.501 870.665 493.753 870.575Z" fill="url(#paint12_linear_698_11596)" stroke="url(#paint13_linear_698_11596)" stroke-width="0.5" stroke-miterlimit="10"/>
<path d="M499.465 854.957C436.491 854.957 358.697 842.407 277.362 829.355C195.439 816.164 110.732 802.526 37.8355 801.634C-111.512 799.319 -304.787 832.409 -306.732 832.758L-306.9 831.782C-304.955 831.447 -111.596 798.315 37.8495 800.658C110.816 801.55 195.565 815.202 277.516 828.393C380.43 844.959 477.634 860.604 546.346 851.108C581.92 846.186 613.155 829.899 646.209 812.664C687.534 791.106 734.373 766.648 797.446 762.018C874.246 756.343 982.17 776.618 1096.38 798.078C1224.41 822.132 1356.81 846.995 1440.72 831.782C1463.38 827.682 1483.92 817.112 1503.5 799.473C1521.02 783.702 1536.25 763.789 1550.97 744.546C1568.03 722.236 1585.66 699.186 1607.18 681.978C1631.38 662.624 1657.88 652.988 1688.22 652.528C1734.41 651.984 1799.49 661.09 1881.71 679.566C1947.48 694.333 2024.26 715.11 2109.96 741.297C2255.86 785.919 2378.65 831.363 2379.85 831.809L2379.51 832.73C2378.28 832.27 2255.54 786.811 2109.66 742.232C2023.99 716.044 1947.22 695.281 1881.56 680.514C1799.41 662.066 1734.39 652.988 1688.29 653.504C1658.18 653.965 1631.87 663.516 1607.86 682.787C1586.43 699.925 1568.83 722.933 1551.88 745.174C1537.13 764.459 1521.87 784.413 1504.3 800.24C1484.58 818.005 1463.88 828.644 1441.03 832.786C1421.27 836.113 1401.25 837.681 1381.2 837.471C1300.68 837.471 1197.16 817.949 1096.34 799.082C982.002 777.58 874.246 757.319 797.516 762.995C734.653 767.624 689.928 790.967 646.671 813.528C613.533 830.805 582.297 847.134 546.486 852.07C530.897 854.103 515.187 855.068 499.465 854.957Z" fill="url(#paint14_linear_698_11596)" stroke="url(#paint15_linear_698_11596)" stroke-width="0.5" stroke-miterlimit="10"/>
<path d="M505.183 839.354C442.517 839.354 365.506 825.409 284.955 810.949C201.661 795.931 115.526 780.411 39.5089 779.379C-118.277 776.786 -304.863 814.017 -306.724 814.393L-306.878 813.459C-305.003 813.083 -118.319 775.81 39.5649 778.431C115.666 779.463 201.899 794.997 285.179 810.015C387.127 828.393 483.436 845.754 551.98 835.198C587.805 829.62 617.081 811.493 648.079 792.32C687.417 767.945 732.044 740.308 798.195 734.967C875.374 728.734 983.536 751.477 1098.05 775.545C1225.55 802.359 1357.39 830.067 1440.74 813.459C1464.35 808.76 1484.95 796.796 1503.72 776.883C1520.51 759.091 1534.41 736.668 1547.83 714.985C1563.32 689.969 1579.34 664.102 1600.07 644.803C1623.38 623.106 1650.2 612.313 1682.06 611.797C1729.43 611.198 1795.6 621.433 1878.72 642.21C1945.21 658.831 2022.63 682.202 2108.84 711.666C2255.63 761.865 2378.65 812.985 2379.87 813.459L2379.51 814.338C2378.28 813.822 2255.28 762.744 2108.54 712.545C2022.35 683.094 1944.94 659.724 1878.48 643.116C1795.43 622.367 1729.29 612.132 1682.06 612.774C1650.45 613.29 1623.83 623.929 1600.71 645.529C1580.07 664.73 1564.09 690.541 1548.63 715.515C1535.18 737.226 1521.27 759.69 1504.4 777.567C1485.47 797.618 1464.69 809.638 1440.9 814.421C1357.35 831.071 1225.39 803.266 1097.81 776.507C983.368 752.439 875.304 729.71 798.223 735.943C769.054 738.25 740.483 745.439 713.712 757.208C689.558 767.736 668.706 780.662 648.54 793.156C617.459 812.413 588.099 830.611 552.092 836.16C536.56 838.411 520.878 839.478 505.183 839.354Z" fill="url(#paint16_linear_698_11596)" stroke="url(#paint17_linear_698_11596)" stroke-width="0.5" stroke-miterlimit="10"/>
<path d="M510.879 823.735C448.562 823.735 372.335 808.522 292.568 792.611C207.944 775.739 120.438 758.281 41.2582 757.137C-6.68622 756.301 -86.7196 758.811 -195.735 775.488C-261.019 785.458 -306.262 795.93 -306.71 796.028L-306.878 795.135C-306.43 795.038 -261.158 784.566 -195.917 774.582C-135.742 765.378 -45.6883 754.711 41.2442 756.217C120.508 757.36 208.056 774.833 292.722 791.705C393.746 811.855 489.174 830.888 557.578 819.287C593.655 813.165 621.028 793.183 649.94 772.044C687.249 744.825 729.54 713.98 798.825 707.9C833.643 704.86 878.593 708.207 936.263 718.135C987.72 727.004 1044.59 740.223 1099.59 752.996C1226.56 782.516 1357.87 813.054 1440.67 795.107C1465.22 789.795 1485.89 776.422 1503.87 754.223C1519.95 734.38 1532.49 709.448 1544.61 685.325C1558.6 657.603 1572.96 628.934 1592.9 607.571C1615.29 583.559 1642.46 571.609 1675.85 571.038C1724.41 570.382 1791.65 581.733 1875.69 604.824C1942.86 623.3 2020.95 649.265 2107.68 682.006C2255.35 737.783 2378.61 794.578 2379.84 795.135L2379.45 795.972C2378.24 795.4 2254.99 738.592 2107.35 682.856C2020.58 650.129 1942.62 624.165 1875.43 605.717C1791.47 582.639 1724.3 571.275 1675.86 571.958C1642.74 572.516 1615.83 584.368 1593.58 608.213C1573.72 629.478 1559.35 658.091 1545.43 685.757C1533.29 709.908 1520.73 734.896 1504.59 754.809C1486.39 777.119 1465.63 790.659 1440.87 796.014C1423.67 799.751 1404.4 801.382 1383.49 801.382C1303.57 801.382 1200.17 777.329 1099.41 753.972C1044.43 741.199 987.566 727.98 936.137 719.111C878.551 709.197 833.671 705.85 798.993 708.89C769.099 711.293 739.943 719.372 713.096 732.693C689.306 744.462 669.616 758.866 650.514 772.797C621.448 794.006 593.977 814.044 557.69 820.207C542.212 822.685 526.554 823.865 510.879 823.735Z" fill="url(#paint18_linear_698_11596)" stroke="url(#paint19_linear_698_11596)" stroke-width="0.5" stroke-miterlimit="10"/>
<path d="M516.574 808.103C454.594 808.103 379.01 791.593 299.985 774.33C214.06 755.561 125.21 736.165 42.8676 734.882C-7.5119 733.976 -90.2182 736.737 -198.17 755.073C-262.726 766.048 -306.276 777.552 -306.71 777.677L-306.878 776.813C-306.444 776.701 -262.866 765.183 -198.268 754.209C-138.638 744.071 -48.3892 732.344 42.9375 734.004C125.378 735.273 214.27 754.697 300.223 773.466C400.352 795.344 494.925 815.996 563.189 803.376C599.575 796.655 625.044 774.874 652.067 751.783C670.106 736.374 688.76 720.45 712.131 707.398C738.72 692.561 767.268 683.874 799.623 680.904C834.609 677.613 879.74 681.336 937.579 692.269C989.19 702.03 1046.16 716.518 1101.31 730.546C1227.76 762.757 1358.53 796.083 1440.81 776.84C1466.28 770.9 1486.99 756.091 1504.21 731.605C1519.6 709.713 1530.8 682.243 1541.54 655.693C1553.93 625.267 1566.73 593.822 1585.92 570.396C1595.3 558.565 1607.08 548.839 1620.49 541.852C1634.98 534.448 1651.12 530.697 1669.82 530.362C1719.55 529.623 1787.87 542.131 1872.83 567.537C1940.76 587.84 2019.45 616.412 2106.7 652.416C2255.25 713.771 2378.77 776.255 2380 776.882L2379.59 777.663C2378.36 777.05 2254.88 714.538 2106.35 653.239C2019.14 617.235 1940.48 588.691 1872.57 568.374C1787.59 543.051 1719.38 530.501 1669.72 531.213C1651.16 531.547 1635.15 535.27 1620.74 542.605C1607.47 549.55 1595.82 559.205 1586.55 570.94C1567.46 594.254 1554.69 625.643 1542.31 656C1531.48 682.605 1520.29 710.103 1504.88 732.079C1487.57 756.761 1466.66 771.681 1440.95 777.677C1358.39 796.934 1227.58 763.607 1101.03 731.382C1045.89 717.354 988.994 702.852 937.355 693.105C879.6 682.187 834.553 678.478 799.651 681.755C767.464 684.78 738.916 693.426 712.508 708.249C689.222 721.273 670.596 737.169 652.599 752.536C625.478 775.683 599.868 797.534 563.287 804.297C547.865 806.982 532.229 808.256 516.574 808.103Z" fill="url(#paint20_linear_698_11596)" stroke="url(#paint21_linear_698_11596)" stroke-width="0.5" stroke-miterlimit="10"/>
<path d="M522.27 792.472C460.597 792.472 385.714 774.707 307.402 756.119C220.231 735.482 130.08 714.036 44.5468 712.641C-8.26761 711.651 -93.6468 714.649 -200.535 734.659C-264.447 746.637 -306.276 759.187 -306.696 759.313L-306.878 758.49C-306.458 758.364 -264.587 745.801 -200.619 733.823C-141.591 722.779 -51.1181 709.978 44.6308 711.791C130.262 713.185 220.455 734.59 307.724 755.283C406.831 778.835 500.593 801.09 568.731 787.466C605.34 780.145 629.046 756.566 654.096 731.605C671.043 714.761 688.55 697.344 711.473 683.024C737.488 666.751 766.526 657.199 800.267 653.824C835.42 650.311 880.706 654.396 938.726 666.374C990.505 677.014 1047.55 692.868 1102.73 708.068C1165.59 725.47 1230.59 743.458 1288.93 754.209C1354.38 766.271 1404.02 767.693 1440.69 758.532C1467.09 751.936 1487.89 735.691 1504.25 708.89C1518.87 684.934 1528.7 654.954 1538.19 625.95C1549.03 592.846 1560.24 558.627 1578.66 533.165C1588.58 519.444 1599.75 509.279 1612.79 502.125C1627.41 494.093 1644.01 490.008 1663.52 489.575C1714.47 488.78 1783.87 502.418 1869.7 530.125C1938.37 552.283 2017.69 583.448 2105.46 622.729C2254.88 689.661 2378.64 757.821 2379.87 758.504L2379.45 759.243C2378.22 758.574 2254.5 690.386 2105.16 623.51C2017.43 584.229 1938.14 553.091 1869.5 530.934C1783.73 503.255 1714.44 489.631 1663.6 490.426C1644.25 490.788 1627.78 494.846 1613.22 502.808C1600.31 509.906 1589.22 519.974 1579.38 533.597C1561.05 558.948 1549.86 593.111 1539.04 626.145C1529.52 655.191 1519.69 685.227 1505.01 709.267C1488.52 736.277 1467.56 752.633 1440.93 759.285C1404.13 768.474 1354.37 767.066 1288.81 754.976C1230.42 744.225 1165.41 726.223 1102.53 708.821C1047.34 693.649 990.295 677.795 938.614 667.155C880.678 655.247 835.476 651.161 800.406 654.605C766.82 657.966 737.88 667.476 711.991 683.679C689.18 697.944 671.701 715.332 654.796 732.149C629.606 757.249 605.816 780.857 568.941 788.233C553.562 791.171 537.929 792.591 522.27 792.472Z" fill="url(#paint22_linear_698_11596)" stroke="url(#paint23_linear_698_11596)" stroke-width="0.5" stroke-miterlimit="10"/>
<path d="M527.938 776.84C466.587 776.84 392.389 757.834 314.777 737.963C226.375 715.332 134.964 691.947 46.2262 690.385C-9.00928 689.312 -97.0754 692.575 -202.872 714.244C-266.154 727.212 -306.29 740.808 -306.682 740.947L-306.878 740.166C-306.486 740.027 -266.294 726.417 -202.984 713.449C-144.544 701.471 -53.847 687.61 46.3102 689.563C135.146 691.097 226.613 714.509 315.001 737.168C413.38 762.366 506.317 786.154 574.343 771.555C611.246 763.634 633.119 738.284 656.363 711.455C687.305 675.66 722.374 635.083 800.994 626.716C836.302 622.979 881.755 627.455 939.944 640.381C991.849 651.899 1048.99 668.981 1104.25 685.491C1166.89 704.204 1231.67 723.559 1289.73 735.16C1354.86 748.17 1404.25 749.788 1440.7 740.111C1468.03 732.846 1488.88 715.15 1504.42 686.007C1518.3 659.987 1526.81 627.441 1534.94 596.025C1544.25 560.258 1553.87 523.278 1571.52 495.793C1581.04 480.971 1592.06 470.011 1605.22 462.327C1620 453.654 1637.04 449.248 1657.36 448.857C1709.52 447.993 1779.94 462.801 1866.72 492.782C1936.11 516.794 2016.06 550.553 2104.34 593.11C2254.65 665.62 2378.63 739.525 2379.89 740.194L2379.47 740.905C2378.24 740.166 2254.26 666.304 2103.97 593.849C2015.73 551.306 1935.81 517.56 1866.44 493.562C1779.76 463.582 1709.41 448.829 1657.38 449.68C1637.21 450.07 1620.29 454.435 1605.6 463.038C1592.55 470.694 1581.62 481.57 1572.18 496.282C1554.6 523.654 1544.99 560.578 1535.71 596.276C1527.51 627.776 1519.04 660.336 1505.1 686.439C1489.46 715.722 1468.44 733.612 1440.87 740.947C1404.29 750.708 1354.79 749.049 1289.52 736.011C1231.43 724.395 1166.64 705.041 1103.97 686.314C1048.72 669.818 991.597 652.75 939.72 641.218C881.63 628.32 836.26 623.857 801.036 627.581C766.051 631.29 736.663 641.664 711.375 659.304C689.054 674.838 672.723 693.718 656.937 711.971C633.637 738.911 611.624 764.36 574.455 772.35C559.151 775.472 543.559 776.977 527.938 776.84Z" fill="url(#paint24_linear_698_11596)" stroke="url(#paint25_linear_698_11596)" stroke-width="0.5" stroke-miterlimit="10"/>
<path d="M533.383 761.28C512.713 761.28 489.483 758.937 462.767 754.224C419.203 746.541 372.042 733.586 322.097 719.865C232.533 695.254 139.877 669.805 47.9066 668.146C-56.5748 666.04 -147.426 680.961 -205.236 693.831C-267.875 707.803 -306.289 722.445 -306.681 722.584L-306.961 721.845C-306.583 721.706 -268.113 707.037 -205.418 693.064C-147.566 680.166 -56.6587 665.176 47.8786 667.351C139.947 669.011 232.603 694.473 322.265 719.098C372.182 732.819 419.343 745.774 462.865 753.443C511.692 762.047 548.874 762.744 579.886 755.646C617.069 747.112 637.262 720.019 658.59 691.321C687.348 652.668 719.955 608.841 801.667 599.736C837.143 595.775 882.75 600.628 941.093 614.544C993.123 626.969 1050.35 645.319 1105.69 663.07C1168.11 683.094 1232.65 703.801 1290.42 716.24C1355.23 730.184 1404.36 732.039 1440.6 721.817C1455.22 717.864 1468.58 710.267 1479.44 699.744C1489.23 690.289 1497.42 678.353 1504.47 663.238C1517.62 635.14 1524.71 600.098 1531.57 566.2C1539.35 527.769 1547.4 488.042 1564.29 458.536C1573.4 442.64 1584.28 430.871 1597.56 422.574C1612.47 413.273 1629.99 408.546 1651.11 408.128C1704.44 407.194 1775.95 423.104 1863.62 455.441C1933.75 481.293 2014.34 517.632 2103.14 563.481C2254.28 641.568 2378.57 721.05 2379.82 721.873L2379.38 722.542C2378.14 721.748 2253.93 642.196 2102.76 564.178C2013.99 518.357 1933.43 482.018 1863.34 456.18C1775.75 423.885 1704.34 407.974 1651.12 408.923C1630.13 409.341 1612.76 414.026 1597.94 423.257C1584.77 431.471 1573.97 443.142 1564.93 458.927C1548.14 488.321 1540.08 527.992 1532.31 566.297C1525.44 600.238 1518.32 635.335 1505.16 663.517C1490.34 695.212 1469.29 714.511 1440.79 722.529C1404.4 732.764 1355.16 730.895 1290.21 716.951C1232.37 704.499 1167.8 683.791 1105.36 663.754C1050.04 646.017 992.829 627.666 940.827 615.256C882.568 601.311 837.045 596.501 801.667 600.447C765.282 604.505 735.586 615.785 710.788 634.847C688.957 651.58 673.801 672.023 659.149 691.726C637.71 720.548 617.46 747.754 579.97 756.343C564.679 759.742 549.049 761.398 533.383 761.28Z" fill="url(#paint26_linear_698_11596)" stroke="url(#paint27_linear_698_11596)" stroke-width="0.5" stroke-miterlimit="10"/>
<path d="M538.985 745.647C518.469 745.647 495.463 743.179 469.014 738.229C425.813 730.113 378.946 716.378 329.309 701.821C242.796 676.442 144.752 647.689 49.5347 645.89C-36.9731 644.153 -123.351 653.403 -207.512 673.416C-269.507 688.378 -306.228 704.094 -306.592 704.233L-306.9 703.522C-306.606 703.41 -269.843 687.653 -207.778 672.733C-123.51 652.676 -37.0166 643.417 49.6047 645.179C144.92 646.964 243.034 675.745 329.588 701.123C379.198 715.681 426.051 729.416 469.21 737.518C517.588 746.596 554.575 747.279 585.53 739.777C623.021 730.643 641.507 701.807 660.973 671.269C687.562 629.729 717.622 582.653 802.428 572.725C838.057 568.542 883.818 573.785 942.371 588.719C994.527 602.036 1051.82 621.669 1107.22 640.661C1169.43 661.968 1233.75 684.014 1291.29 697.303C1355.79 712.195 1404.64 714.245 1440.74 703.55C1455.78 699.234 1469.4 691.004 1480.2 679.705C1490 669.526 1497.97 656.683 1504.63 640.452C1517.02 610.263 1522.74 572.683 1528.28 536.344C1534.54 495.265 1541 452.79 1557.15 421.29C1565.86 404.306 1576.61 391.742 1590.03 382.888C1605.07 372.96 1623.04 367.912 1644.97 367.466C1699.55 366.462 1772.06 383.515 1860.66 418.153C1931.52 445.846 2012.72 484.792 2102.05 533.89C2254.11 617.555 2378.6 702.755 2379.85 703.605L2379.42 704.233C2378.17 703.382 2253.71 618.155 2101.67 534.559C2012.37 485.462 1931.19 446.529 1860.38 418.822C1771.88 384.213 1699.45 367.229 1645 368.177C1623.21 368.637 1605.36 373.643 1590.42 383.515C1577.12 392.3 1566.45 404.766 1557.81 421.625C1541.72 453.013 1535.25 495.432 1529.01 536.442C1523.41 572.822 1517.73 610.458 1505.32 640.731C1498.62 657.046 1490.57 670.014 1480.72 680.221C1469.81 691.64 1456.04 699.949 1440.83 704.289C1404.64 715.012 1355.64 712.976 1290.98 698.042C1233.41 684.753 1169.06 662.707 1106.85 641.372C1051.46 622.394 994.177 602.761 942.049 589.458C883.637 574.551 837.973 569.322 802.428 573.492C764.643 577.898 734.583 590.03 710.359 610.583C689.032 628.711 675.052 650.52 661.533 671.673C641.941 702.35 623.413 731.313 585.628 740.516C570.343 744.081 554.683 745.804 538.985 745.647Z" fill="url(#paint28_linear_698_11596)" stroke="url(#paint29_linear_698_11596)" stroke-width="0.5" stroke-miterlimit="10"/>
<path d="M544.569 730.017C524.221 730.017 501.439 727.437 475.353 722.25C432.489 713.716 385.846 699.228 336.586 683.889C249.01 656.586 149.734 625.644 51.2704 623.72C-62.0834 621.321 -153.312 638.361 -209.933 653.086C-271.298 668.969 -306.312 685.702 -306.648 685.869L-306.969 685.283C-306.62 685.116 -271.564 668.341 -210.143 652.375C-153.48 637.636 -62.1114 620.568 51.2844 622.981C149.86 624.905 249.178 655.875 336.768 683.192C386.07 698.53 432.629 713.074 475.451 721.594C523.382 731.132 560.131 731.871 591.086 723.895C628.871 714.134 645.664 683.582 663.339 651.218C687.647 606.805 715.202 556.467 803.1 545.702C838.897 541.323 884.798 546.943 943.448 562.881C995.731 577.09 1053.08 598.006 1108.58 618.24C1170.56 640.843 1234.66 664.256 1291.91 678.339C1356.11 694.166 1404.77 696.467 1440.64 685.311C1456.19 680.653 1470.14 671.769 1480.91 659.654C1490.71 648.736 1498.49 634.987 1504.7 617.626C1516.33 585.331 1520.68 545.227 1524.9 506.435C1529.64 462.719 1534.54 417.526 1549.95 384.018C1558.26 365.974 1568.88 352.616 1582.41 343.203C1597.6 332.647 1616 327.279 1638.78 326.791C1694.51 325.731 1768.12 343.914 1857.63 380.867C1929.21 410.414 2011.06 451.982 2100.89 504.343C2253.83 593.586 2378.58 684.461 2379.82 685.367L2379.39 685.953C2378.14 685.046 2253.44 594.144 2100.51 504.97C2010.71 452.61 1928.9 411.084 1857.35 381.55C1767.94 344.639 1694.41 326.47 1638.8 327.53C1616.2 328.018 1597.89 333.331 1582.82 343.803C1569.4 353.145 1558.86 366.392 1550.63 384.325C1535.24 417.721 1530.37 462.859 1525.64 506.518C1521.44 545.353 1517.07 585.498 1505.42 617.863C1499.13 635.321 1491.28 649.154 1481.44 660.142C1470.59 672.351 1456.54 681.308 1440.86 686.009C1404.85 697.164 1356.07 694.961 1291.72 679.106C1234.35 664.967 1170.28 641.596 1108.29 618.979C1052.83 598.759 995.493 577.843 943.253 563.648C884.687 547.737 838.869 542.118 803.17 546.496C764.084 551.279 733.576 564.303 709.926 586.307C689.13 605.662 676.339 629.032 663.969 651.622C646.168 684.14 629.361 714.845 591.198 724.662C575.945 728.404 560.277 730.203 544.569 730.017Z" fill="url(#paint30_linear_698_11596)" stroke="url(#paint31_linear_698_11596)" stroke-width="0.5" stroke-miterlimit="10"/>
<path d="M550.15 714.385C529.942 714.385 507.383 711.694 481.577 706.27C439.049 697.331 392.756 682.048 343.748 665.831C255.122 636.548 154.671 603.417 52.9323 601.367C2.02365 600.169 -48.9013 602.92 -99.3816 609.594C-137.513 614.644 -175.248 622.317 -212.316 632.56C-273.009 649.544 -306.315 667.323 -306.651 667.505L-306.987 666.891C-306.651 666.71 -273.303 648.903 -212.511 631.933C-175.415 621.671 -137.646 613.992 -99.4796 608.953C-48.9578 602.269 2.00906 599.509 52.9603 600.698C154.811 602.762 255.304 635.935 344.042 665.204C393.022 681.379 439.315 696.648 481.801 705.642C529.298 715.626 565.837 716.365 596.779 707.971C634.885 697.624 649.957 665.343 665.882 631.152C687.923 583.867 712.917 530.265 803.908 518.65C839.859 514.062 885.915 520.044 944.705 537.014C997.085 552.13 1054.5 574.315 1110.03 595.789C1171.79 619.662 1235.66 644.357 1292.7 659.305C1323.4 667.351 1349.73 672.023 1373.21 673.584C1399.55 675.327 1421.63 673.152 1440.75 666.919C1456.79 661.894 1471.02 652.342 1481.72 639.421C1491.52 627.777 1499.09 613.108 1504.94 594.618C1515.8 560.218 1518.78 517.576 1521.65 476.343C1524.88 430.006 1528.22 382.08 1542.9 346.662C1550.81 327.544 1561.31 313.404 1574.97 303.434C1590.36 292.279 1609.2 286.576 1632.75 286.06C1689.65 284.944 1764.29 304.187 1854.75 343.51C1927.08 374.913 2009.54 419.046 2099.89 474.712C2253.73 569.532 2378.71 666.082 2379.96 667.044L2379.53 667.602C2378.28 666.64 2253.31 569.993 2099.53 475.297C2009.19 419.66 1926.75 375.54 1854.47 344.152C1764.15 304.94 1689.55 285.586 1632.76 286.771C1609.36 287.273 1590.6 292.92 1575.39 304.006C1561.82 313.893 1551.41 327.934 1543.55 346.94C1528.92 382.317 1525.58 430.174 1522.35 476.469C1519.55 517.743 1516.5 560.427 1505.55 594.897C1499.68 613.485 1492.04 628.224 1482.21 639.951C1471.42 652.962 1457.07 662.585 1440.91 667.658C1421.71 673.919 1399.53 676.108 1373.11 674.351C1349.59 672.789 1323.21 668.118 1292.48 660.058C1235.39 645.096 1171.5 620.401 1109.71 596.515C1054.21 575.054 996.805 552.855 944.453 537.767C885.761 520.742 839.789 514.718 803.936 519.347C763.479 524.506 732.565 538.423 709.545 561.905C689.267 582.542 677.68 607.405 666.456 631.445C650.461 665.79 635.333 698.224 596.904 708.64C581.647 712.626 565.922 714.558 550.15 714.385Z" fill="url(#paint32_linear_698_11596)" stroke="url(#paint33_linear_698_11596)" stroke-width="0.5" stroke-miterlimit="10"/>
<path d="M555.481 698.767C496.705 698.767 427.909 674.797 350.885 647.968C261.321 616.733 159.653 581.343 54.6256 579.153C2.41571 577.86 -49.8135 580.779 -101.551 587.883C-139.811 593.138 -177.619 601.263 -214.653 612.187C-274.688 630.12 -306.329 649.028 -306.637 649.14L-306.987 648.568C-306.679 648.373 -275.024 629.52 -214.877 611.546C-177.81 600.612 -139.97 592.478 -101.677 587.213C-49.8925 580.11 2.38318 577.191 54.6396 578.484C159.779 580.673 261.433 616.134 351.109 647.327C449.601 681.644 534.672 711.275 602.32 691.948C619.855 686.942 633.192 677.167 644.303 661.146C654.197 646.853 661.096 629.436 668.317 610.946C688.119 560.9 710.51 504.008 804.552 491.542C840.671 486.745 886.866 493.159 945.796 511.064C998.289 527.072 1055.75 550.54 1111.32 573.255C1172.9 598.355 1236.51 624.402 1293.32 640.187C1323.88 648.679 1350.09 653.616 1373.46 655.303C1399.67 657.185 1421.67 654.954 1440.63 648.484C1457.15 643.087 1471.66 632.888 1482.31 619.201C1492.11 606.791 1499.45 591.215 1504.88 571.582C1514.99 535.076 1516.58 489.91 1518.12 446.223C1519.86 397.251 1521.65 346.619 1535.6 309.165C1543.11 288.988 1553.48 274.053 1567.27 263.539C1582.75 251.743 1602.1 245.747 1626.46 245.203C1684.55 243.99 1760.32 264.474 1851.65 306.028C1924.68 339.271 2007.78 386.012 2098.66 444.94C2253.37 545.339 2378.55 647.578 2379.83 648.596L2379.41 649.112C2378.17 648.094 2252.96 545.813 2098.28 445.526C2007.45 386.611 1924.36 339.898 1851.37 306.669C1760.12 265.157 1684.47 244.715 1626.48 245.9C1602.27 246.444 1583.1 252.398 1567.7 264.111C1554 274.541 1543.72 289.364 1536.24 309.43C1522.32 346.787 1520.54 397.362 1518.81 446.279C1517.27 489.994 1515.67 535.215 1505.55 571.777C1500.1 591.494 1492.67 607.153 1482.86 619.62C1472.14 633.434 1457.52 643.731 1440.87 649.181C1421.76 655.693 1399.67 657.938 1373.38 656.042C1349.97 654.355 1323.7 649.404 1293.09 640.898C1236.25 625.114 1172.59 599.066 1111.01 573.966C1055.51 551.237 998.065 527.713 945.614 511.761C886.838 493.829 840.657 487.428 804.664 492.239C710.986 504.663 688.665 561.347 668.919 611.337C654.673 647.494 641.224 681.644 602.474 692.673C587.172 696.881 571.354 698.932 555.481 698.767Z" fill="url(#paint34_linear_698_11596)" stroke="url(#paint35_linear_698_11596)" stroke-width="0.5" stroke-miterlimit="10"/>
<path d="M561.125 683.109C502.6 683.109 434.364 658.093 357.983 630.121C267.356 596.892 164.638 559.242 56.3084 556.928C2.78827 555.52 -50.7559 558.599 -103.758 566.131C-142.156 571.604 -180.043 580.185 -217.042 591.788C-276.462 610.738 -306.34 630.595 -306.606 630.832L-306.969 630.302C-306.676 630.107 -276.714 610.195 -217.21 591.258C-180.189 579.64 -142.279 571.05 -103.856 565.573C-50.8174 558.029 2.76456 554.946 56.3224 556.356C164.736 558.587 267.524 596.264 358.193 629.507C455.915 665.33 540.315 696.272 607.922 676.109C625.61 670.838 638.709 660.547 649.149 643.717C658.469 628.713 664.542 610.432 670.868 591.077C688.333 538.089 708.135 477.878 805.213 464.505C841.486 459.513 887.779 466.318 946.877 485.296C999.468 502.21 1056.97 526.961 1112.57 550.834C1173.92 577.244 1237.34 604.561 1293.91 621.169C1324.35 630.093 1350.44 635.322 1373.68 637.121C1399.76 639.157 1421.65 636.87 1440.6 630.149C1457.61 624.369 1472.43 613.488 1483 598.997C1492.79 585.848 1499.92 569.352 1504.93 548.561C1514.26 509.949 1514.47 462.246 1514.72 416.091C1514.96 364.497 1515.2 311.174 1528.44 271.754C1535.58 250.517 1545.8 234.802 1559.73 223.744C1575.35 211.334 1595.18 205.017 1620.34 204.445C1679.62 203.19 1756.45 224.776 1848.68 268.589C1922.45 303.672 2006.19 353.007 2097.57 415.212C2253.16 521.188 2378.63 629.089 2379.88 630.177L2379.46 630.665C2378.21 629.577 2252.75 521.621 2097.21 415.742C2005.84 353.551 1922.14 304.188 1848.4 269.16C1756.27 225.334 1679.53 203.748 1620.3 205.017C1595.27 205.588 1575.51 211.849 1560.12 224.176C1546.29 235.164 1536.12 250.768 1529.04 271.879C1515.83 311.202 1515.59 364.497 1515.35 416.021C1515.14 462.19 1514.93 509.935 1505.56 548.617C1500.52 569.533 1493.31 586.057 1483.52 599.29C1472.88 613.888 1457.99 624.864 1440.86 630.72C1421.83 637.469 1399.84 639.756 1373.69 637.693C1350.37 635.88 1324.23 630.651 1293.75 621.712C1237.15 605.091 1173.71 577.774 1112.35 551.364C1056.75 527.422 999.272 502.671 946.695 485.826C887.751 466.876 841.514 460.085 805.353 465.063C708.61 478.38 688.878 538.312 671.47 591.189C665.074 610.585 659.043 628.838 649.694 643.981C639.157 660.938 625.904 671.312 608.089 676.639C592.835 681.066 577.012 683.246 561.125 683.109Z" fill="url(#paint36_linear_698_11596)" stroke="url(#paint37_linear_698_11596)" stroke-width="0.5" stroke-miterlimit="10"/>
<path d="M566.762 667.463C508.462 667.463 440.813 641.429 365.02 612.286C273.427 577.049 169.632 537.126 57.9852 534.658C0.174744 533.264 -54.9768 536.596 -105.916 544.349C-144.454 550.026 -182.417 559.064 -219.368 571.359C-278.158 591.286 -306.356 612.202 -306.636 612.411L-307 611.923C-306.72 611.714 -278.48 590.756 -219.606 570.788C-182.618 558.483 -144.617 549.435 -106.042 543.75C-55.0468 535.983 0.132751 532.72 57.9992 533.989C169.758 536.457 273.609 576.407 365.244 611.658C462.21 649.029 545.952 681.226 613.517 660.184C631.359 654.606 644.22 643.842 654.016 626.216C662.763 610.501 668.01 591.355 673.44 571.067C688.596 515.122 705.767 451.732 805.98 437.453C842.365 432.266 888.882 439.461 948.05 459.457C1000.72 477.264 1058.27 503.311 1113.91 528.495C1175.04 556.16 1238.25 584.774 1294.58 602.19C1324.89 611.561 1350.88 617.055 1374.05 618.993C1400.02 621.168 1421.83 618.839 1440.71 611.881C1458.2 605.657 1473.26 594.067 1483.72 578.778C1493.52 564.833 1500.4 547.445 1505.01 525.525C1513.56 484.78 1512.4 434.552 1511.26 385.971C1510 331.783 1508.7 275.811 1521.23 234.369C1527.99 212.058 1538.02 195.604 1552.16 183.988C1567.93 170.964 1588.21 164.341 1614.18 163.741C1674.65 162.347 1752.54 185.146 1845.69 231.329C1920.18 268.267 2004.55 320.182 2096.45 385.664C2252.92 497.218 2378.63 610.808 2379.89 611.951L2379.47 612.397C2378.22 611.268 2252.53 497.622 2096.09 386.166C2004.21 320.628 1919.87 268.797 1845.41 231.873C1752.36 185.731 1674.58 163.03 1614.19 164.355C1588.37 164.954 1568.21 171.536 1552.62 184.462C1538.62 195.994 1528.6 212.351 1521.83 234.55C1509.33 275.839 1510.63 331.811 1511.89 385.957C1513.03 434.566 1514.19 484.835 1505.62 525.65C1501.01 547.654 1494.01 565.154 1484.24 579.126C1473.69 594.532 1458.5 606.201 1440.86 612.453C1421.9 619.425 1400.01 621.782 1373.94 619.606C1350.72 617.668 1324.69 612.16 1294.34 602.776C1237.97 585.345 1174.74 556.76 1113.6 529.053C1057.98 503.869 1000.44 477.835 947.784 460.042C888.728 440.074 842.351 432.879 806.022 438.052C706.201 452.276 689.086 515.471 673.972 571.22C668.472 591.537 663.28 610.724 654.492 626.523C644.696 644.274 631.639 655.164 613.643 660.77C598.447 665.358 582.639 667.615 566.762 667.463Z" fill="url(#paint38_linear_698_11596)" stroke="url(#paint39_linear_698_11596)" stroke-width="0.5" stroke-miterlimit="10"/>
<path d="M572.387 651.816C514.325 651.816 447.166 624.779 372.017 594.506C279.501 557.247 174.698 515.023 59.6645 512.43C-0.091156 511.035 -56.4882 514.452 -108.099 522.595C-149.354 529.121 -187.573 538.659 -221.733 550.958C-279.879 571.874 -306.37 593.836 -306.622 594.045L-307 593.613C-306.748 593.39 -280.201 571.302 -221.971 550.386C-187.783 538.087 -149.508 528.535 -108.225 522.009C-56.6281 513.852 -0.133118 510.422 59.7065 511.816C174.782 514.41 279.697 556.661 372.269 593.948C468.41 632.713 551.564 666.179 619.114 644.273C637.111 638.43 649.748 627.149 658.9 608.743C667.073 592.302 671.495 572.278 676.057 551.083C688.89 492.266 703.416 425.585 806.694 410.4C843.275 405.017 889.876 412.617 949.156 433.631C1001.93 452.358 1059.49 479.647 1115.16 506.141C1176.07 535.061 1239.08 564.958 1295.18 583.197C1325.36 592.958 1351.24 598.786 1374.32 600.85C1400.19 603.151 1421.9 600.85 1440.71 593.599C1458.7 586.938 1474.03 574.636 1484.4 558.543C1494.09 543.86 1500.84 525.509 1505.01 502.432C1512.78 459.581 1510.23 406.816 1507.81 355.78C1505.85 315.258 1503.83 273.356 1507.14 237.477C1510.83 197.262 1521.02 168.76 1538.25 150.298C1554.72 132.658 1577.56 123.804 1608.05 123.009C1669.72 121.615 1748.66 145.487 1842.72 193.971C1917.94 232.75 2002.94 287.272 2095.36 356.031C2252.68 473.079 2378.63 592.428 2379.89 593.613L2379.48 594.045C2378.22 592.846 2252.29 473.525 2094.97 356.491C2002.6 287.76 1917.6 233.252 1842.41 194.487C1748.44 146.045 1669.6 122.186 1608.02 123.595C1577.7 124.306 1555 133.174 1538.62 150.702C1521.49 169.053 1511.36 197.457 1507.67 237.533C1504.37 273.37 1506.39 315.258 1508.35 355.752C1510.82 406.816 1513.36 459.609 1505.55 502.543C1501.36 525.691 1494.6 544.111 1484.86 558.864C1474.41 575.041 1458.98 587.406 1440.89 594.101C1421.99 601.324 1400.21 603.695 1374.25 601.38C1351.13 599.316 1325.27 593.529 1294.97 583.713C1238.82 565.46 1175.82 535.549 1114.88 506.629C1059.22 480.135 1001.68 452.888 948.932 434.119C889.75 413.203 843.247 405.533 806.75 410.902C703.878 426.045 689.38 492.503 676.603 551.139C671.971 572.376 667.591 592.428 659.39 608.924C650.168 627.484 637.419 638.862 619.268 644.747C604.115 649.56 588.291 651.946 572.387 651.816Z" fill="url(#paint40_linear_698_11596)" stroke="url(#paint41_linear_698_11596)" stroke-width="0.5" stroke-miterlimit="10"/>
<path d="M577.999 636.144C520.161 636.144 453.534 608.116 378.986 576.756C285.546 537.447 179.652 492.895 61.3158 490.162C-0.398987 488.67 -58.1115 492.295 -110.282 500.829C-152.027 507.648 -190.316 517.646 -224.098 530.531C-281.6 552.451 -306.384 575.459 -306.622 575.682L-307 575.292C-306.762 575.124 -281.922 551.991 -224.308 530.029C-190.497 517.13 -152.167 507.118 -110.38 500.285C-58.1674 491.738 -0.371033 488.154 61.3858 489.618C179.806 492.407 285.756 536.931 379.224 576.254C474.735 616.427 557.204 651.12 624.754 628.363C642.947 622.242 655.304 610.459 663.826 591.258C671.425 574.12 675.022 553.232 678.73 531.13C689.212 469.427 701.121 399.496 807.478 383.321C844.227 377.743 890.94 385.747 950.317 407.779C1003.17 427.413 1060.76 456.012 1116.44 483.678C1177.16 513.839 1239.94 545.033 1295.82 564.08C1325.88 574.329 1351.66 580.367 1374.65 582.57C1400.42 585.025 1422.04 582.57 1440.78 575.194C1459.25 568.097 1474.84 555.103 1485.11 538.242C1494.78 522.791 1501.31 503.507 1505.07 479.285C1512.06 434.287 1508.12 378.998 1504.31 325.522C1501.29 282.992 1498.17 239.068 1500.74 201.419C1503.62 159.293 1513.55 129.48 1531.07 110.279C1547.59 92.1515 1570.77 83.004 1601.91 82.251C1664.77 80.773 1744.79 105.789 1839.74 156.588C1915.69 197.221 2001.32 254.337 2094.25 326.359C2252.49 449.068 2378.69 574.023 2379.95 575.264L2379.55 575.654C2378.3 574.413 2252.11 449.403 2093.92 326.791C2001.01 254.783 1915.41 197.681 1839.49 157.076C1744.61 106.319 1664.67 81.3168 1601.92 82.7948C1570.94 83.5478 1547.9 92.6534 1531.49 110.683C1514.05 129.801 1504.17 159.488 1501.29 201.502C1498.71 239.054 1501.85 283.02 1504.87 325.606C1508.66 379.096 1512.61 434.371 1505.61 479.481C1501.85 503.785 1495.3 523.126 1485.59 538.646C1475.25 555.61 1459.56 568.679 1440.97 575.807C1422.16 583.268 1400.39 585.694 1374.6 583.226C1351.58 581.023 1325.74 574.971 1295.64 564.708C1239.66 545.646 1176.93 514.509 1116.21 484.291C1060.52 456.626 1002.95 428.026 950.121 408.407C890.842 386.403 844.213 378.399 807.562 383.963C701.625 400.054 689.772 469.775 679.318 531.297C675.526 553.371 671.929 574.274 664.33 591.481C655.738 610.835 643.227 622.716 624.922 628.879C609.788 633.853 593.935 636.308 577.999 636.144Z" fill="url(#paint42_linear_698_11596)" stroke="url(#paint43_linear_698_11596)" stroke-width="0.5" stroke-miterlimit="10"/>
<path d="M583.765 620.413C526.094 620.413 459.985 591.437 385.997 559.059C291.662 517.714 184.746 470.847 63.0231 467.975C-0.636902 466.441 -59.6788 470.192 -112.465 479.13C-154.7 486.27 -193.058 496.714 -226.449 510.184C-283.322 533.039 -306.398 557.079 -306.622 557.33L-307 556.995C-306.776 556.758 -283.644 532.634 -226.701 509.668C-193.254 496.184 -154.868 485.726 -112.591 478.587C-59.7628 469.648 -0.636932 465.897 63.0371 467.431C184.857 470.318 291.83 517.198 386.207 558.571C480.949 600.097 562.773 635.961 630.324 612.493C648.6 606.065 660.789 593.752 668.668 573.77C675.665 555.921 678.464 534.196 681.347 511.188C689.478 446.626 698.714 373.461 808.121 356.407C845.01 350.634 891.863 359.043 951.325 382.12C1004.27 402.646 1061.88 432.543 1117.56 461.449C1178.07 492.851 1240.63 525.314 1296.3 545.184C1326.25 555.866 1351.93 562.182 1374.82 564.497C1400.49 567.105 1422.04 564.65 1440.71 557.009C1459.67 549.456 1475.51 535.748 1485.68 518.104C1495.33 501.887 1501.62 481.654 1504.95 456.276C1511.15 409.158 1505.83 351.331 1500.75 295.415C1496.65 250.793 1492.36 204.777 1494.26 165.483C1496.35 121.447 1506.02 90.337 1523.83 70.3828C1540.43 51.823 1563.94 42.4943 1595.72 41.6437C1659.76 40.1099 1740.85 66.2553 1836.72 119.355C1913.4 161.829 1999.67 221.552 2093.11 296.851C2252.15 424.957 2378.63 555.601 2379.88 556.995L2379.5 557.358C2378.24 556.047 2251.8 425.361 2092.73 297.186C1999.3 221.887 1913.05 162.206 1836.41 119.745C1740.62 66.6876 1659.63 40.57 1595.71 42.0899C1564.08 42.8708 1540.68 52.2135 1524.2 70.6617C1506.45 90.5183 1496.82 121.516 1494.81 165.483C1492.96 204.75 1497.19 250.807 1501.29 295.345C1506.42 351.29 1511.74 409.13 1505.48 456.318C1502.14 481.766 1495.81 502.055 1486.14 518.342C1475.91 536.06 1459.97 549.818 1440.92 557.385C1422.16 565.069 1400.54 567.523 1374.79 564.915C1351.84 562.601 1326.12 556.27 1296.14 545.575C1240.43 525.704 1177.85 493.214 1117.34 461.812C1061.64 432.905 1003.99 403.023 951.157 382.497C891.765 359.461 845.01 351.066 808.219 356.825C699.176 373.865 689.982 446.835 681.865 511.216C678.968 534.252 676.267 556.005 669.158 573.965C661.209 594.101 648.922 606.497 630.492 613.009C615.447 618.087 599.648 620.59 583.765 620.413Z" fill="url(#paint44_linear_698_11596)" stroke="url(#paint45_linear_698_11596)" stroke-width="0.5" stroke-miterlimit="10"/>
<path d="M589.209 604.854C569.882 604.854 548.625 601.438 524.681 594.605C484.237 583.059 439.833 562.798 392.841 541.352C297.679 497.916 189.755 448.693 64.7024 445.667C-0.902832 444.077 -61.2462 447.981 -114.648 457.296C-157.373 464.742 -195.815 475.647 -228.814 489.703C-285.043 513.617 -306.412 538.717 -306.622 538.968L-307 538.647C-306.79 538.396 -285.365 513.227 -229.052 489.27C-195.997 475.201 -157.541 464.282 -114.774 456.822C-61.3302 447.507 -0.930817 443.589 64.7164 445.179C189.923 448.232 297.805 497.456 393.037 540.906C440.029 562.352 484.405 582.599 524.821 594.131C569.687 606.946 604.994 607.699 635.922 596.543C654.366 589.85 666.345 577.021 673.608 556.314C680.102 537.782 682.005 515.221 684.09 491.32C689.87 423.928 696.419 347.555 808.835 329.26C845.864 323.376 892.801 332.23 952.318 356.312C1005.29 377.744 1062.87 408.882 1118.51 439.001C1178.86 471.631 1241.24 505.39 1296.75 526.055C1326.58 537.211 1352.19 543.764 1375.02 546.205C1400.6 548.993 1422.08 546.456 1440.71 538.577C1460.16 530.57 1476.27 516.14 1486.31 497.707C1495.91 480.708 1501.99 459.555 1504.9 433.019C1510.28 383.754 1503.6 323.404 1497.12 265.047C1491.95 218.487 1486.61 170.324 1487.73 129.3C1488.99 83.3534 1498.4 50.9609 1516.54 30.2956C1533.21 11.2756 1557.12 1.64016 1589.51 0.845338C1654.75 -0.744306 1736.88 26.5306 1833.65 81.9311C1911.07 126.26 1997.96 188.563 2091.92 267.139C2251.9 400.92 2378.6 537.308 2379.86 538.675L2379.5 538.995C2378.24 537.601 2251.56 401.268 2091.59 267.515C1997.65 188.953 1910.79 126.678 1833.41 82.3634C1736.71 26.9908 1654.65 -0.256249 1589.51 1.33339C1557.22 2.12822 1533.53 11.7079 1516.9 30.6163C1498.85 51.2119 1489.48 83.5068 1488.22 129.342C1487.1 170.338 1492.41 218.473 1497.61 265.019C1504.09 323.404 1510.79 383.782 1505.39 433.103C1502.48 459.695 1496.37 480.918 1486.73 497.971C1476.63 516.496 1460.45 531.002 1440.9 539.065C1422.19 546.972 1400.63 549.468 1374.96 546.721C1352.09 544.28 1326.46 537.671 1296.59 526.543C1241.08 505.864 1178.66 472.161 1118.32 439.461C1062.66 409.342 1005.1 378.218 952.165 356.786C892.731 332.732 845.878 323.906 808.947 329.776C696.909 348.001 690.373 424.179 684.608 491.39C682.55 515.318 680.605 537.908 674.098 556.509C666.779 577.426 654.716 590.282 636.117 597.031C621.064 602.364 605.185 605.012 589.209 604.854Z" fill="url(#paint46_linear_698_11596)" stroke="url(#paint47_linear_698_11596)" stroke-width="0.5" stroke-miterlimit="10"/>
<path d="M594.68 589.235C575.494 589.235 554.447 585.735 530.74 578.735C490.549 566.841 446.397 545.91 399.656 523.739C351.152 500.731 300.996 476.956 245.593 457.894C182.254 436.099 123.632 424.832 66.3817 423.424C-1.16873 421.765 -62.8136 425.836 -116.846 435.528C-160.06 443.295 -198.53 454.645 -231.179 469.287C-286.764 494.247 -306.44 520.337 -306.622 520.602L-307 520.323C-306.804 520.072 -287.086 493.829 -231.431 468.882C-198.74 454.227 -160.242 442.862 -116.972 435.095C-62.9116 425.334 -1.21072 421.305 66.3537 422.964C123.646 424.358 182.324 435.653 245.691 457.462C301.136 476.524 351.292 500.313 399.81 523.321C446.537 545.478 490.675 566.422 530.838 578.289C575.382 591.466 610.606 592.233 641.491 580.631C660.09 573.659 671.845 560.384 678.492 538.799C684.44 519.556 685.573 496.115 686.763 471.295C690.163 400.96 694.012 321.255 809.507 302.165C829.448 298.874 851.559 299.906 877.127 305.33C899.868 310.141 924.82 318.34 953.424 330.43C1006.49 352.741 1064.09 385.245 1119.8 416.647C1179.98 450.504 1242.04 485.532 1297.29 507.006C1327 518.552 1352.5 525.412 1375.24 527.992C1400.71 530.878 1422.11 528.341 1440.68 520.253C1461.01 511.384 1476.12 497.37 1486.86 477.388C1496.43 459.609 1502.25 437.508 1504.76 409.815C1509.35 358.402 1501.27 295.472 1493.46 234.745C1487.21 186.163 1480.76 135.922 1481.15 93.1826C1481.37 70.1886 1483.49 51.0431 1487.63 34.6168C1492.27 16.2244 1499.34 1.69446 1509.22 -9.78165C1526.01 -29.2339 1550.2 -39.0646 1583.28 -39.9291C1649.7 -41.6163 1732.91 -13.1841 1830.59 44.5451C1908.73 90.7005 1996.25 155.611 2090.73 237.464C2251.66 376.808 2378.53 518.872 2379.79 520.295L2379.46 520.602C2378.2 519.207 2251.27 377.129 2090.42 237.798C1995.96 155.974 1908.49 91.077 1830.35 44.9355C1732.74 -12.7378 1649.61 -41.1702 1583.29 -39.469C1550.35 -38.6462 1526.24 -28.8434 1509.57 -9.47487C1499.78 1.94546 1492.78 16.4056 1488.08 34.7283C1483.88 51.0989 1481.82 70.2164 1481.61 93.1687C1481.22 135.88 1487.67 186.107 1493.91 234.675C1501.73 295.5 1509.82 358.388 1505.22 409.842C1502.74 437.591 1496.82 459.763 1487.26 477.597C1476.47 497.663 1461.28 511.747 1440.85 520.657C1422.2 528.787 1400.72 531.325 1375.17 528.438C1352.39 525.859 1326.86 518.984 1297.11 507.424C1241.83 485.936 1179.67 450.908 1119.56 417.024C1063.87 385.635 1006.21 353.187 953.228 330.834C893.668 305.735 846.675 296.518 809.577 302.653C694.446 321.673 690.625 401.183 687.211 471.378C686.021 496.227 684.887 519.695 678.926 538.994C672.223 560.691 660.383 574.05 641.631 581.064C626.609 586.606 610.699 589.375 594.68 589.235Z" fill="url(#paint48_linear_698_11596)" stroke="url(#paint49_linear_698_11596)" stroke-width="0.5" stroke-miterlimit="10"/>
</g>
<defs>
<linearGradient id="paint0_linear_698_11596" x1="-306.985" y1="950.631" x2="2379.96" y2="950.633" gradientUnits="userSpaceOnUse">
<stop stop-color="#DA1DEF"/>
<stop offset="0.220312" stop-color="#6B08FF"/>
<stop offset="0.322917" stop-color="#15ACFF"/>
<stop offset="0.478646" stop-color="#00EBAD"/>
<stop offset="0.634375" stop-color="#15ACFF"/>
<stop offset="0.796875" stop-color="#6B08FF"/>
<stop offset="1" stop-color="#DA1DEF"/>
</linearGradient>
<linearGradient id="paint1_linear_698_11596" x1="-306.985" y1="950.631" x2="2379.96" y2="950.633" gradientUnits="userSpaceOnUse">
<stop stop-color="#DA1DEF"/>
<stop offset="0.220312" stop-color="#6B08FF"/>
<stop offset="0.322917" stop-color="#15ACFF"/>
<stop offset="0.478646" stop-color="#00EBAD"/>
<stop offset="0.634375" stop-color="#15ACFF"/>
<stop offset="0.796875" stop-color="#6B08FF"/>
<stop offset="1" stop-color="#DA1DEF"/>
</linearGradient>
<linearGradient id="paint2_linear_698_11596" x1="-306.968" y1="922.336" x2="2380.05" y2="922.337" gradientUnits="userSpaceOnUse">
<stop stop-color="#DA1DEF"/>
<stop offset="0.220312" stop-color="#6B08FF"/>
<stop offset="0.322917" stop-color="#15ACFF"/>
<stop offset="0.478646" stop-color="#00EBAD"/>
<stop offset="0.634375" stop-color="#15ACFF"/>
<stop offset="0.796875" stop-color="#6B08FF"/>
<stop offset="1" stop-color="#DA1DEF"/>
</linearGradient>
<linearGradient id="paint3_linear_698_11596" x1="-306.968" y1="922.336" x2="2380.05" y2="922.337" gradientUnits="userSpaceOnUse">
<stop stop-color="#DA1DEF"/>
<stop offset="0.220312" stop-color="#6B08FF"/>
<stop offset="0.322917" stop-color="#15ACFF"/>
<stop offset="0.478646" stop-color="#00EBAD"/>
<stop offset="0.634375" stop-color="#15ACFF"/>
<stop offset="0.796875" stop-color="#6B08FF"/>
<stop offset="1" stop-color="#DA1DEF"/>
</linearGradient>
<linearGradient id="paint4_linear_698_11596" x1="-306.968" y1="893.897" x2="2380.05" y2="893.898" gradientUnits="userSpaceOnUse">
<stop stop-color="#DA1DEF"/>
<stop offset="0.220312" stop-color="#6B08FF"/>
<stop offset="0.322917" stop-color="#15ACFF"/>
<stop offset="0.478646" stop-color="#00EBAD"/>
<stop offset="0.634375" stop-color="#15ACFF"/>
<stop offset="0.796875" stop-color="#6B08FF"/>
<stop offset="1" stop-color="#DA1DEF"/>
</linearGradient>
<linearGradient id="paint5_linear_698_11596" x1="-306.968" y1="893.897" x2="2380.05" y2="893.898" gradientUnits="userSpaceOnUse">
<stop stop-color="#DA1DEF"/>
<stop offset="0.220312" stop-color="#6B08FF"/>
<stop offset="0.322917" stop-color="#15ACFF"/>
<stop offset="0.478646" stop-color="#00EBAD"/>
<stop offset="0.634375" stop-color="#15ACFF"/>
<stop offset="0.796875" stop-color="#6B08FF"/>
<stop offset="1" stop-color="#DA1DEF"/>
</linearGradient>
<linearGradient id="paint6_linear_698_11596" x1="-307.042" y1="865.651" x2="2380" y2="865.651" gradientUnits="userSpaceOnUse">
<stop stop-color="#DA1DEF"/>
<stop offset="0.220312" stop-color="#6B08FF"/>
<stop offset="0.322917" stop-color="#15ACFF"/>
<stop offset="0.478646" stop-color="#00EBAD"/>
<stop offset="0.634375" stop-color="#15ACFF"/>
<stop offset="0.796875" stop-color="#6B08FF"/>
<stop offset="1" stop-color="#DA1DEF"/>
</linearGradient>
<linearGradient id="paint7_linear_698_11596" x1="-307.042" y1="865.651" x2="2380" y2="865.651" gradientUnits="userSpaceOnUse">
<stop stop-color="#DA1DEF"/>
<stop offset="0.220312" stop-color="#6B08FF"/>
<stop offset="0.322917" stop-color="#15ACFF"/>
<stop offset="0.478646" stop-color="#00EBAD"/>
<stop offset="0.634375" stop-color="#15ACFF"/>
<stop offset="0.796875" stop-color="#6B08FF"/>
<stop offset="1" stop-color="#DA1DEF"/>
</linearGradient>
<linearGradient id="paint8_linear_698_11596" x1="-307.06" y1="837.314" x2="2379.98" y2="837.314" gradientUnits="userSpaceOnUse">
<stop stop-color="#DA1DEF"/>
<stop offset="0.220312" stop-color="#6B08FF"/>
<stop offset="0.322917" stop-color="#15ACFF"/>
<stop offset="0.478646" stop-color="#00EBAD"/>
<stop offset="0.634375" stop-color="#15ACFF"/>
<stop offset="0.796875" stop-color="#6B08FF"/>
<stop offset="1" stop-color="#DA1DEF"/>
</linearGradient>
<linearGradient id="paint9_linear_698_11596" x1="-307.06" y1="837.314" x2="2379.98" y2="837.314" gradientUnits="userSpaceOnUse">
<stop stop-color="#DA1DEF"/>
<stop offset="0.220312" stop-color="#6B08FF"/>
<stop offset="0.322917" stop-color="#15ACFF"/>
<stop offset="0.478646" stop-color="#00EBAD"/>
<stop offset="0.634375" stop-color="#15ACFF"/>
<stop offset="0.796875" stop-color="#6B08FF"/>
<stop offset="1" stop-color="#DA1DEF"/>
</linearGradient>
<linearGradient id="paint10_linear_698_11596" x1="-307.06" y1="808.933" x2="2380.01" y2="808.933" gradientUnits="userSpaceOnUse">
<stop stop-color="#DA1DEF"/>
<stop offset="0.220312" stop-color="#6B08FF"/>
<stop offset="0.322917" stop-color="#15ACFF"/>
<stop offset="0.478646" stop-color="#00EBAD"/>
<stop offset="0.634375" stop-color="#15ACFF"/>
<stop offset="0.796875" stop-color="#6B08FF"/>
<stop offset="1" stop-color="#DA1DEF"/>
</linearGradient>
<linearGradient id="paint11_linear_698_11596" x1="-307.06" y1="808.933" x2="2380.01" y2="808.933" gradientUnits="userSpaceOnUse">
<stop stop-color="#DA1DEF"/>
<stop offset="0.220312" stop-color="#6B08FF"/>
<stop offset="0.322917" stop-color="#15ACFF"/>
<stop offset="0.478646" stop-color="#00EBAD"/>
<stop offset="0.634375" stop-color="#15ACFF"/>
<stop offset="0.796875" stop-color="#6B08FF"/>
<stop offset="1" stop-color="#DA1DEF"/>
</linearGradient>
<linearGradient id="paint12_linear_698_11596" x1="-307.029" y1="780.63" x2="2380.06" y2="780.631" gradientUnits="userSpaceOnUse">
<stop stop-color="#DA1DEF"/>
<stop offset="0.220312" stop-color="#6B08FF"/>
<stop offset="0.322917" stop-color="#15ACFF"/>
<stop offset="0.478646" stop-color="#00EBAD"/>
<stop offset="0.634375" stop-color="#15ACFF"/>
<stop offset="0.796875" stop-color="#6B08FF"/>
<stop offset="1" stop-color="#DA1DEF"/>
</linearGradient>
<linearGradient id="paint13_linear_698_11596" x1="-307.029" y1="780.63" x2="2380.06" y2="780.631" gradientUnits="userSpaceOnUse">
<stop stop-color="#DA1DEF"/>
<stop offset="0.220312" stop-color="#6B08FF"/>
<stop offset="0.322917" stop-color="#15ACFF"/>
<stop offset="0.478646" stop-color="#00EBAD"/>
<stop offset="0.634375" stop-color="#15ACFF"/>
<stop offset="0.796875" stop-color="#6B08FF"/>
<stop offset="1" stop-color="#DA1DEF"/>
</linearGradient>
<linearGradient id="paint14_linear_698_11596" x1="-307.082" y1="752.273" x2="2380.07" y2="752.273" gradientUnits="userSpaceOnUse">
<stop stop-color="#DA1DEF"/>
<stop offset="0.220312" stop-color="#6B08FF"/>
<stop offset="0.322917" stop-color="#15ACFF"/>
<stop offset="0.478646" stop-color="#00EBAD"/>
<stop offset="0.634375" stop-color="#15ACFF"/>
<stop offset="0.796875" stop-color="#6B08FF"/>
<stop offset="1" stop-color="#DA1DEF"/>
</linearGradient>
<linearGradient id="paint15_linear_698_11596" x1="-307.082" y1="752.273" x2="2380.07" y2="752.273" gradientUnits="userSpaceOnUse">
<stop stop-color="#DA1DEF"/>
<stop offset="0.220312" stop-color="#6B08FF"/>
<stop offset="0.322917" stop-color="#15ACFF"/>
<stop offset="0.478646" stop-color="#00EBAD"/>
<stop offset="0.634375" stop-color="#15ACFF"/>
<stop offset="0.796875" stop-color="#6B08FF"/>
<stop offset="1" stop-color="#DA1DEF"/>
</linearGradient>
<linearGradient id="paint16_linear_698_11596" x1="-307.06" y1="723.924" x2="2380.1" y2="723.925" gradientUnits="userSpaceOnUse">
<stop stop-color="#DA1DEF"/>
<stop offset="0.220312" stop-color="#6B08FF"/>
<stop offset="0.322917" stop-color="#15ACFF"/>
<stop offset="0.478646" stop-color="#00EBAD"/>
<stop offset="0.634375" stop-color="#15ACFF"/>
<stop offset="0.796875" stop-color="#6B08FF"/>
<stop offset="1" stop-color="#DA1DEF"/>
</linearGradient>
<linearGradient id="paint17_linear_698_11596" x1="-307.06" y1="723.924" x2="2380.1" y2="723.925" gradientUnits="userSpaceOnUse">
<stop stop-color="#DA1DEF"/>
<stop offset="0.220312" stop-color="#6B08FF"/>
<stop offset="0.322917" stop-color="#15ACFF"/>
<stop offset="0.478646" stop-color="#00EBAD"/>
<stop offset="0.634375" stop-color="#15ACFF"/>
<stop offset="0.796875" stop-color="#6B08FF"/>
<stop offset="1" stop-color="#DA1DEF"/>
</linearGradient>
<linearGradient id="paint18_linear_698_11596" x1="-307.06" y1="695.553" x2="2380.07" y2="695.553" gradientUnits="userSpaceOnUse">
<stop stop-color="#DA1DEF"/>
<stop offset="0.220312" stop-color="#6B08FF"/>
<stop offset="0.322917" stop-color="#15ACFF"/>
<stop offset="0.478646" stop-color="#00EBAD"/>
<stop offset="0.634375" stop-color="#15ACFF"/>
<stop offset="0.796875" stop-color="#6B08FF"/>
<stop offset="1" stop-color="#DA1DEF"/>
</linearGradient>
<linearGradient id="paint19_linear_698_11596" x1="-307.06" y1="695.553" x2="2380.07" y2="695.553" gradientUnits="userSpaceOnUse">
<stop stop-color="#DA1DEF"/>
<stop offset="0.220312" stop-color="#6B08FF"/>
<stop offset="0.322917" stop-color="#15ACFF"/>
<stop offset="0.478646" stop-color="#00EBAD"/>
<stop offset="0.634375" stop-color="#15ACFF"/>
<stop offset="0.796875" stop-color="#6B08FF"/>
<stop offset="1" stop-color="#DA1DEF"/>
</linearGradient>
<linearGradient id="paint20_linear_698_11596" x1="-307.06" y1="667.217" x2="2380.22" y2="667.217" gradientUnits="userSpaceOnUse">
<stop stop-color="#DA1DEF"/>
<stop offset="0.220312" stop-color="#6B08FF"/>
<stop offset="0.322917" stop-color="#15ACFF"/>
<stop offset="0.478646" stop-color="#00EBAD"/>
<stop offset="0.634375" stop-color="#15ACFF"/>
<stop offset="0.796875" stop-color="#6B08FF"/>
<stop offset="1" stop-color="#DA1DEF"/>
</linearGradient>
<linearGradient id="paint21_linear_698_11596" x1="-307.06" y1="667.217" x2="2380.22" y2="667.217" gradientUnits="userSpaceOnUse">
<stop stop-color="#DA1DEF"/>
<stop offset="0.220312" stop-color="#6B08FF"/>
<stop offset="0.322917" stop-color="#15ACFF"/>
<stop offset="0.478646" stop-color="#00EBAD"/>
<stop offset="0.634375" stop-color="#15ACFF"/>
<stop offset="0.796875" stop-color="#6B08FF"/>
<stop offset="1" stop-color="#DA1DEF"/>
</linearGradient>
<linearGradient id="paint22_linear_698_11596" x1="-307.06" y1="638.823" x2="2380.1" y2="638.823" gradientUnits="userSpaceOnUse">
<stop stop-color="#DA1DEF"/>
<stop offset="0.220312" stop-color="#6B08FF"/>
<stop offset="0.322917" stop-color="#15ACFF"/>
<stop offset="0.478646" stop-color="#00EBAD"/>
<stop offset="0.634375" stop-color="#15ACFF"/>
<stop offset="0.796875" stop-color="#6B08FF"/>
<stop offset="1" stop-color="#DA1DEF"/>
</linearGradient>
<linearGradient id="paint23_linear_698_11596" x1="-307.06" y1="638.823" x2="2380.1" y2="638.823" gradientUnits="userSpaceOnUse">
<stop stop-color="#DA1DEF"/>
<stop offset="0.220312" stop-color="#6B08FF"/>
<stop offset="0.322917" stop-color="#15ACFF"/>
<stop offset="0.478646" stop-color="#00EBAD"/>
<stop offset="0.634375" stop-color="#15ACFF"/>
<stop offset="0.796875" stop-color="#6B08FF"/>
<stop offset="1" stop-color="#DA1DEF"/>
</linearGradient>
<linearGradient id="paint24_linear_698_11596" x1="-307.06" y1="610.466" x2="2380.11" y2="610.466" gradientUnits="userSpaceOnUse">
<stop stop-color="#DA1DEF"/>
<stop offset="0.220312" stop-color="#6B08FF"/>
<stop offset="0.322917" stop-color="#15ACFF"/>
<stop offset="0.478646" stop-color="#00EBAD"/>
<stop offset="0.634375" stop-color="#15ACFF"/>
<stop offset="0.796875" stop-color="#6B08FF"/>
<stop offset="1" stop-color="#DA1DEF"/>
</linearGradient>
<linearGradient id="paint25_linear_698_11596" x1="-307.06" y1="610.466" x2="2380.11" y2="610.466" gradientUnits="userSpaceOnUse">
<stop stop-color="#DA1DEF"/>
<stop offset="0.220312" stop-color="#6B08FF"/>
<stop offset="0.322917" stop-color="#15ACFF"/>
<stop offset="0.478646" stop-color="#00EBAD"/>
<stop offset="0.634375" stop-color="#15ACFF"/>
<stop offset="0.796875" stop-color="#6B08FF"/>
<stop offset="1" stop-color="#DA1DEF"/>
</linearGradient>
<linearGradient id="paint26_linear_698_11596" x1="-307.143" y1="582.137" x2="2380.04" y2="582.137" gradientUnits="userSpaceOnUse">
<stop stop-color="#DA1DEF"/>
<stop offset="0.220312" stop-color="#6B08FF"/>
<stop offset="0.322917" stop-color="#15ACFF"/>
<stop offset="0.478646" stop-color="#00EBAD"/>
<stop offset="0.634375" stop-color="#15ACFF"/>
<stop offset="0.796875" stop-color="#6B08FF"/>
<stop offset="1" stop-color="#DA1DEF"/>
</linearGradient>
<linearGradient id="paint27_linear_698_11596" x1="-307.143" y1="582.137" x2="2380.04" y2="582.137" gradientUnits="userSpaceOnUse">
<stop stop-color="#DA1DEF"/>
<stop offset="0.220312" stop-color="#6B08FF"/>
<stop offset="0.322917" stop-color="#15ACFF"/>
<stop offset="0.478646" stop-color="#00EBAD"/>
<stop offset="0.634375" stop-color="#15ACFF"/>
<stop offset="0.796875" stop-color="#6B08FF"/>
<stop offset="1" stop-color="#DA1DEF"/>
</linearGradient>
<linearGradient id="paint28_linear_698_11596" x1="-307.082" y1="553.809" x2="2380.07" y2="553.809" gradientUnits="userSpaceOnUse">
<stop stop-color="#DA1DEF"/>
<stop offset="0.220312" stop-color="#6B08FF"/>
<stop offset="0.322917" stop-color="#15ACFF"/>
<stop offset="0.478646" stop-color="#00EBAD"/>
<stop offset="0.634375" stop-color="#15ACFF"/>
<stop offset="0.796875" stop-color="#6B08FF"/>
<stop offset="1" stop-color="#DA1DEF"/>
</linearGradient>
<linearGradient id="paint29_linear_698_11596" x1="-307.082" y1="553.809" x2="2380.07" y2="553.809" gradientUnits="userSpaceOnUse">
<stop stop-color="#DA1DEF"/>
<stop offset="0.220312" stop-color="#6B08FF"/>
<stop offset="0.322917" stop-color="#15ACFF"/>
<stop offset="0.478646" stop-color="#00EBAD"/>
<stop offset="0.634375" stop-color="#15ACFF"/>
<stop offset="0.796875" stop-color="#6B08FF"/>
<stop offset="1" stop-color="#DA1DEF"/>
</linearGradient>
<linearGradient id="paint30_linear_698_11596" x1="-307.151" y1="525.476" x2="2380.05" y2="525.476" gradientUnits="userSpaceOnUse">
<stop stop-color="#DA1DEF"/>
<stop offset="0.220312" stop-color="#6B08FF"/>
<stop offset="0.322917" stop-color="#15ACFF"/>
<stop offset="0.478646" stop-color="#00EBAD"/>
<stop offset="0.634375" stop-color="#15ACFF"/>
<stop offset="0.796875" stop-color="#6B08FF"/>
<stop offset="1" stop-color="#DA1DEF"/>
</linearGradient>
<linearGradient id="paint31_linear_698_11596" x1="-307.151" y1="525.476" x2="2380.05" y2="525.476" gradientUnits="userSpaceOnUse">
<stop stop-color="#DA1DEF"/>
<stop offset="0.220312" stop-color="#6B08FF"/>
<stop offset="0.322917" stop-color="#15ACFF"/>
<stop offset="0.478646" stop-color="#00EBAD"/>
<stop offset="0.634375" stop-color="#15ACFF"/>
<stop offset="0.796875" stop-color="#6B08FF"/>
<stop offset="1" stop-color="#DA1DEF"/>
</linearGradient>
<linearGradient id="paint32_linear_698_11596" x1="-307.169" y1="497.111" x2="2380.18" y2="497.111" gradientUnits="userSpaceOnUse">
<stop stop-color="#DA1DEF"/>
<stop offset="0.220312" stop-color="#6B08FF"/>
<stop offset="0.322917" stop-color="#15ACFF"/>
<stop offset="0.478646" stop-color="#00EBAD"/>
<stop offset="0.634375" stop-color="#15ACFF"/>
<stop offset="0.796875" stop-color="#6B08FF"/>
<stop offset="1" stop-color="#DA1DEF"/>
</linearGradient>
<linearGradient id="paint33_linear_698_11596" x1="-307.169" y1="497.111" x2="2380.18" y2="497.111" gradientUnits="userSpaceOnUse">
<stop stop-color="#DA1DEF"/>
<stop offset="0.220312" stop-color="#6B08FF"/>
<stop offset="0.322917" stop-color="#15ACFF"/>
<stop offset="0.478646" stop-color="#00EBAD"/>
<stop offset="0.634375" stop-color="#15ACFF"/>
<stop offset="0.796875" stop-color="#6B08FF"/>
<stop offset="1" stop-color="#DA1DEF"/>
</linearGradient>
<linearGradient id="paint34_linear_698_11596" x1="-307.169" y1="468.688" x2="2380.06" y2="468.688" gradientUnits="userSpaceOnUse">
<stop stop-color="#DA1DEF"/>
<stop offset="0.220312" stop-color="#6B08FF"/>
<stop offset="0.322917" stop-color="#15ACFF"/>
<stop offset="0.478646" stop-color="#00EBAD"/>
<stop offset="0.634375" stop-color="#15ACFF"/>
<stop offset="0.796875" stop-color="#6B08FF"/>
<stop offset="1" stop-color="#DA1DEF"/>
</linearGradient>
<linearGradient id="paint35_linear_698_11596" x1="-307.169" y1="468.688" x2="2380.06" y2="468.688" gradientUnits="userSpaceOnUse">
<stop stop-color="#DA1DEF"/>
<stop offset="0.220312" stop-color="#6B08FF"/>
<stop offset="0.322917" stop-color="#15ACFF"/>
<stop offset="0.478646" stop-color="#00EBAD"/>
<stop offset="0.634375" stop-color="#15ACFF"/>
<stop offset="0.796875" stop-color="#6B08FF"/>
<stop offset="1" stop-color="#DA1DEF"/>
</linearGradient>
<linearGradient id="paint36_linear_698_11596" x1="-307.151" y1="440.297" x2="2380.1" y2="440.297" gradientUnits="userSpaceOnUse">
<stop stop-color="#DA1DEF"/>
<stop offset="0.220312" stop-color="#6B08FF"/>
<stop offset="0.322917" stop-color="#15ACFF"/>
<stop offset="0.478646" stop-color="#00EBAD"/>
<stop offset="0.634375" stop-color="#15ACFF"/>
<stop offset="0.796875" stop-color="#6B08FF"/>
<stop offset="1" stop-color="#DA1DEF"/>
</linearGradient>
<linearGradient id="paint37_linear_698_11596" x1="-307.151" y1="440.297" x2="2380.1" y2="440.297" gradientUnits="userSpaceOnUse">
<stop stop-color="#DA1DEF"/>
<stop offset="0.220312" stop-color="#6B08FF"/>
<stop offset="0.322917" stop-color="#15ACFF"/>
<stop offset="0.478646" stop-color="#00EBAD"/>
<stop offset="0.634375" stop-color="#15ACFF"/>
<stop offset="0.796875" stop-color="#6B08FF"/>
<stop offset="1" stop-color="#DA1DEF"/>
</linearGradient>
<linearGradient id="paint38_linear_698_11596" x1="-307.182" y1="411.937" x2="2380.11" y2="411.937" gradientUnits="userSpaceOnUse">
<stop stop-color="#DA1DEF"/>
<stop offset="0.220312" stop-color="#6B08FF"/>
<stop offset="0.322917" stop-color="#15ACFF"/>
<stop offset="0.478646" stop-color="#00EBAD"/>
<stop offset="0.634375" stop-color="#15ACFF"/>
<stop offset="0.796875" stop-color="#6B08FF"/>
<stop offset="1" stop-color="#DA1DEF"/>
</linearGradient>
<linearGradient id="paint39_linear_698_11596" x1="-307.182" y1="411.937" x2="2380.11" y2="411.937" gradientUnits="userSpaceOnUse">
<stop stop-color="#DA1DEF"/>
<stop offset="0.220312" stop-color="#6B08FF"/>
<stop offset="0.322917" stop-color="#15ACFF"/>
<stop offset="0.478646" stop-color="#00EBAD"/>
<stop offset="0.634375" stop-color="#15ACFF"/>
<stop offset="0.796875" stop-color="#6B08FF"/>
<stop offset="1" stop-color="#DA1DEF"/>
</linearGradient>
<linearGradient id="paint40_linear_698_11596" x1="-307.182" y1="383.567" x2="2380.11" y2="383.567" gradientUnits="userSpaceOnUse">
<stop stop-color="#DA1DEF"/>
<stop offset="0.220312" stop-color="#6B08FF"/>
<stop offset="0.322917" stop-color="#15ACFF"/>
<stop offset="0.478646" stop-color="#00EBAD"/>
<stop offset="0.634375" stop-color="#15ACFF"/>
<stop offset="0.796875" stop-color="#6B08FF"/>
<stop offset="1" stop-color="#DA1DEF"/>
</linearGradient>
<linearGradient id="paint41_linear_698_11596" x1="-307.182" y1="383.567" x2="2380.11" y2="383.567" gradientUnits="userSpaceOnUse">
<stop stop-color="#DA1DEF"/>
<stop offset="0.220312" stop-color="#6B08FF"/>
<stop offset="0.322917" stop-color="#15ACFF"/>
<stop offset="0.478646" stop-color="#00EBAD"/>
<stop offset="0.634375" stop-color="#15ACFF"/>
<stop offset="0.796875" stop-color="#6B08FF"/>
<stop offset="1" stop-color="#DA1DEF"/>
</linearGradient>
<linearGradient id="paint42_linear_698_11596" x1="-307.182" y1="355.17" x2="2380.17" y2="355.17" gradientUnits="userSpaceOnUse">
<stop stop-color="#DA1DEF"/>
<stop offset="0.220312" stop-color="#6B08FF"/>
<stop offset="0.322917" stop-color="#15ACFF"/>
<stop offset="0.478646" stop-color="#00EBAD"/>
<stop offset="0.634375" stop-color="#15ACFF"/>
<stop offset="0.796875" stop-color="#6B08FF"/>
<stop offset="1" stop-color="#DA1DEF"/>
</linearGradient>
<linearGradient id="paint43_linear_698_11596" x1="-307.182" y1="355.17" x2="2380.17" y2="355.17" gradientUnits="userSpaceOnUse">
<stop stop-color="#DA1DEF"/>
<stop offset="0.220312" stop-color="#6B08FF"/>
<stop offset="0.322917" stop-color="#15ACFF"/>
<stop offset="0.478646" stop-color="#00EBAD"/>
<stop offset="0.634375" stop-color="#15ACFF"/>
<stop offset="0.796875" stop-color="#6B08FF"/>
<stop offset="1" stop-color="#DA1DEF"/>
</linearGradient>
<linearGradient id="paint44_linear_698_11596" x1="-307.182" y1="326.821" x2="2380.1" y2="326.821" gradientUnits="userSpaceOnUse">
<stop stop-color="#DA1DEF"/>
<stop offset="0.220312" stop-color="#6B08FF"/>
<stop offset="0.322917" stop-color="#15ACFF"/>
<stop offset="0.478646" stop-color="#00EBAD"/>
<stop offset="0.634375" stop-color="#15ACFF"/>
<stop offset="0.796875" stop-color="#6B08FF"/>
<stop offset="1" stop-color="#DA1DEF"/>
</linearGradient>
<linearGradient id="paint45_linear_698_11596" x1="-307.182" y1="326.821" x2="2380.1" y2="326.821" gradientUnits="userSpaceOnUse">
<stop stop-color="#DA1DEF"/>
<stop offset="0.220312" stop-color="#6B08FF"/>
<stop offset="0.322917" stop-color="#15ACFF"/>
<stop offset="0.478646" stop-color="#00EBAD"/>
<stop offset="0.634375" stop-color="#15ACFF"/>
<stop offset="0.796875" stop-color="#6B08FF"/>
<stop offset="1" stop-color="#DA1DEF"/>
</linearGradient>
<linearGradient id="paint46_linear_698_11596" x1="-307.182" y1="298.458" x2="2380.09" y2="298.458" gradientUnits="userSpaceOnUse">
<stop stop-color="#DA1DEF"/>
<stop offset="0.220312" stop-color="#6B08FF"/>
<stop offset="0.322917" stop-color="#15ACFF"/>
<stop offset="0.478646" stop-color="#00EBAD"/>
<stop offset="0.634375" stop-color="#15ACFF"/>
<stop offset="0.796875" stop-color="#6B08FF"/>
<stop offset="1" stop-color="#DA1DEF"/>
</linearGradient>
<linearGradient id="paint47_linear_698_11596" x1="-307.182" y1="298.458" x2="2380.09" y2="298.458" gradientUnits="userSpaceOnUse">
<stop stop-color="#DA1DEF"/>
<stop offset="0.220312" stop-color="#6B08FF"/>
<stop offset="0.322917" stop-color="#15ACFF"/>
<stop offset="0.478646" stop-color="#00EBAD"/>
<stop offset="0.634375" stop-color="#15ACFF"/>
<stop offset="0.796875" stop-color="#6B08FF"/>
<stop offset="1" stop-color="#DA1DEF"/>
</linearGradient>
<linearGradient id="paint48_linear_698_11596" x1="-307.182" y1="270.076" x2="2380.02" y2="270.076" gradientUnits="userSpaceOnUse">
<stop stop-color="#DA1DEF"/>
<stop offset="0.220312" stop-color="#6B08FF"/>
<stop offset="0.322917" stop-color="#15ACFF"/>
<stop offset="0.478646" stop-color="#00EBAD"/>
<stop offset="0.634375" stop-color="#15ACFF"/>
<stop offset="0.796875" stop-color="#6B08FF"/>
<stop offset="1" stop-color="#DA1DEF"/>
</linearGradient>
<linearGradient id="paint49_linear_698_11596" x1="-307.182" y1="270.076" x2="2380.02" y2="270.076" gradientUnits="userSpaceOnUse">
<stop stop-color="#DA1DEF"/>
<stop offset="0.220312" stop-color="#6B08FF"/>
<stop offset="0.322917" stop-color="#15ACFF"/>
<stop offset="0.478646" stop-color="#00EBAD"/>
<stop offset="0.634375" stop-color="#15ACFF"/>
<stop offset="0.796875" stop-color="#6B08FF"/>
<stop offset="1" stop-color="#DA1DEF"/>
</linearGradient>
</defs>
</svg>
