<svg width="142" height="22" viewBox="0 0 142 22" fill="none" xmlns="http://www.w3.org/2000/svg">
<g clip-path="url(#clip0_901_2081)">
<path d="M13.6377 8.67895L7.03046 14.4607L11.0246 21.0179L16.5737 11.9087L13.6377 8.67895Z" fill="#DA1DEF"/>
<path d="M13.6377 6.19897L18.0408 9.4992L22.0096 2.98206H0.0378265L5.09848 11.2887L13.6377 6.19897Z" fill="#DA1DEF"/>
<path d="M31.5511 15.3659L30.3612 18.1823H27.8004L32.6633 6.98077H35.8089L40.9034 18.1823H38.2158L36.9583 15.3659H31.5511ZM36.2399 13.4547C35.0297 10.7184 34.4466 9.35982 34.1677 8.53476H34.1508C33.8938 9.33899 33.2076 11.1125 32.2222 13.4547H36.2399Z" fill="#2E4452"/>
<path d="M44.7183 13.7014V18.1823H42.259V6.98077H48.4403C51.0686 6.98077 52.6473 8.18391 52.6473 10.1288C52.6473 11.545 51.8174 12.431 50.5582 12.785C51.1362 12.974 52.3414 13.4531 52.3414 15.4476V15.9859C52.3414 16.7837 52.3296 17.6713 52.4868 18.1823H49.9412C49.7502 17.6905 49.7418 16.968 49.7418 15.8593V15.4893C49.7418 14.19 49.2262 13.7014 47.3923 13.7014H44.7183ZM44.7183 11.9023H47.8689C49.4071 11.9023 50.1085 11.3816 50.1085 10.313C50.1085 9.31977 49.3969 8.78148 47.9061 8.78148H44.7183V11.9023Z" fill="#2E4452"/>
<path d="M66.1458 14.7155C65.5576 16.6684 63.9636 18.421 60.3634 18.421C56.2358 18.421 54.1686 15.7055 54.1686 12.5976C54.1686 9.48958 56.4521 6.74367 60.4952 6.74367C64.0482 6.74367 65.7891 8.59884 66.1711 10.4604H63.6509C63.3213 9.64819 62.5827 8.59884 60.4665 8.59884C58.095 8.59884 56.7868 10.2922 56.7868 12.5094C56.7868 14.7251 58.0224 16.5755 60.4834 16.5755C62.3393 16.5755 63.127 15.8641 63.6459 14.7139H66.1458V14.7155Z" fill="#2E4452"/>
<path d="M68.2113 6.98077H70.6943V11.2935H76.6728V6.98077H79.1558V18.1823H76.6728V13.1935H70.6943V18.1823H68.2113V6.98077Z" fill="#2E4452"/>
<path d="M84.47 6.98077V18.1823H81.987V6.98077H84.47Z" fill="#2E4452"/>
<path d="M89.4106 18.1823L85.9506 6.98077H88.5587C89.3109 9.62256 90.6901 14.1836 90.9538 16.034H90.9707C91.3375 14.1243 92.7641 9.62095 93.6075 6.98077H95.9976C96.7717 9.46075 98.2879 14.4575 98.5887 15.9619H98.6175C98.9724 14.0378 100.347 9.52643 101.097 6.98077H103.595L99.9088 18.1823H97.2162C96.4303 15.6879 95.0054 10.9795 94.6487 9.46235H94.6318C94.2938 11.2134 92.9601 15.3995 92.0761 18.1823H89.4106Z" fill="#DA1DEF"/>
<path d="M107.611 6.98077V18.1823H105.128V6.98077H107.611Z" fill="#DA1DEF"/>
<path d="M110.409 18.1823V6.98077H113.355C116.462 11.3672 118.585 14.0346 119.301 15.3082H119.335C119.223 14.041 119.24 12.0513 119.24 10.2153V6.98077H121.526V18.1823H118.759C117.439 16.3303 113.382 10.611 112.633 9.32297H112.599C112.694 10.7248 112.694 12.3156 112.694 14.3021V18.1807H110.409V18.1823Z" fill="#DA1DEF"/>
<path d="M124.355 6.98077H129.541C133.471 6.98077 135.663 9.40147 135.663 12.3909C135.663 15.9779 132.918 18.1823 129.488 18.1823H124.353V6.98077H124.355ZM126.838 16.3319H129.125C131.701 16.3319 133.033 14.8965 133.033 12.455C133.033 10.2153 131.689 8.84236 129.191 8.81993H126.836V16.3319H126.838Z" fill="#DA1DEF"/>
</g>
<defs>
<clipPath id="clip0_901_2081">
<rect width="136" height="20" fill="white" transform="translate(0 2)"/>
</clipPath>
</defs>
</svg>
