<svg width="136" height="20" viewBox="0 0 136 20" fill="none" xmlns="http://www.w3.org/2000/svg">
<g clip-path="url(#clip0_901_2079)">
<path d="M14.1243 6.67895L7.55823 12.4607L11.5274 19.0179L17.042 9.90868L14.1243 6.67895Z" fill="#DA1DEF"/>
<path d="M14.1243 4.19897L18.5 7.4992L22.4457 0.982056H0.609177L5.63829 9.28869L14.1243 4.19897Z" fill="#DA1DEF"/>
<path d="M31.9261 13.3659L30.7436 16.1823H28.1988L33.0314 4.98077H36.1573L41.22 16.1823H38.5493L37.2996 13.3659H31.9261ZM36.5857 11.4547C35.383 8.71836 34.8035 7.35982 34.5263 6.53476H34.5095C34.2542 7.33899 33.5722 9.11246 32.5929 11.4547H36.5857Z" fill="white"/>
<path d="M45.0112 11.7014V16.1823H42.5672V4.98077H48.71C51.3219 4.98077 52.8908 6.18391 52.8908 8.1288C52.8908 9.54502 52.0661 10.431 50.8147 10.785C51.3891 10.974 52.5868 11.4531 52.5868 13.4476V13.9859C52.5868 14.7837 52.575 15.6713 52.7312 16.1823H50.2016C50.0118 15.6905 50.0034 14.968 50.0034 13.8593V13.4893C50.0034 12.19 49.491 11.7014 47.6685 11.7014H45.0112ZM45.0112 9.90227H48.1422C49.6708 9.90227 50.3679 9.38161 50.3679 8.31304C50.3679 7.31977 49.6607 6.78148 48.1792 6.78148H45.0112V9.90227Z" fill="white"/>
<path d="M66.3052 12.7155C65.7206 14.6684 64.1366 16.421 60.5588 16.421C56.4569 16.421 54.4026 13.7055 54.4026 10.5976C54.4026 7.48959 56.6719 4.74368 60.6898 4.74368C64.2206 4.74368 65.9507 6.59885 66.3303 8.46043H63.8259C63.4983 7.64819 62.7643 6.59885 60.6613 6.59885C58.3046 6.59885 57.0045 8.29222 57.0045 10.5095C57.0045 12.7251 58.2324 14.5755 60.6781 14.5755C62.5224 14.5755 63.3052 13.8642 63.8208 12.7139H66.3052V12.7155Z" fill="white"/>
<path d="M68.3578 4.98077H70.8253V9.29349H76.7665V4.98077H79.234V16.1823H76.7665V11.1935H70.8253V16.1823H68.3578V4.98077Z" fill="white"/>
<path d="M84.5151 4.98077V16.1823H82.0476V4.98077H84.5151Z" fill="white"/>
<path d="M89.425 16.1823L85.9866 4.98077H88.5784C89.3259 7.62256 90.6965 12.1836 90.9586 14.034H90.9754C91.3399 12.1243 92.7576 7.62095 93.5957 4.98077H95.9709C96.7402 7.46075 98.2469 12.4575 98.5459 13.9619H98.5745C98.9272 12.0378 100.293 7.52643 101.039 4.98077H103.521L99.8595 16.1823H97.1837C96.4026 13.6879 94.9866 8.97949 94.6321 7.46235H94.6153C94.2794 9.21339 92.9541 13.3995 92.0756 16.1823H89.425Z" fill="#DA1DEF"/>
<path d="M107.512 4.98077V16.1823H105.045V4.98077H107.512Z" fill="#DA1DEF"/>
<path d="M110.294 16.1823V4.98077H113.222C116.309 9.36719 118.419 12.0346 119.131 13.3082H119.165C119.054 12.041 119.071 10.0513 119.071 8.21531V4.98077H121.342V16.1823H118.592C117.28 14.3303 113.249 8.61102 112.504 7.32297H112.471C112.565 8.72477 112.565 10.3156 112.565 12.3021V16.1807H110.294V16.1823Z" fill="#DA1DEF"/>
<path d="M124.152 4.98077H129.305C133.211 4.98077 135.389 7.40147 135.389 10.3909C135.389 13.9779 132.661 16.1823 129.253 16.1823H124.15V4.98077H124.152ZM126.619 14.3319H128.892C131.452 14.3319 132.775 12.8965 132.775 10.455C132.775 8.21531 131.44 6.84236 128.957 6.81993H126.618V14.3319H126.619Z" fill="#DA1DEF"/>
</g>
<defs>
<clipPath id="clip0_901_2079">
<rect width="136" height="20" fill="white"/>
</clipPath>
</defs>
</svg>
