<svg width="467" height="105" viewBox="0 0 467 105" fill="none" xmlns="http://www.w3.org/2000/svg">
<path d="M178.824 20.064V90H170.376C169.128 90 168.072 89.808 167.208 89.424C166.376 89.008 165.544 88.304 164.712 87.312L131.736 45.6C131.864 46.848 131.944 48.064 131.976 49.248C132.04 50.4 132.072 51.488 132.072 52.512V90H117.768V20.064H126.312C127.016 20.064 127.608 20.096 128.088 20.16C128.568 20.224 129 20.352 129.384 20.544C129.768 20.704 130.136 20.944 130.488 21.264C130.84 21.584 131.24 22.016 131.688 22.56L164.952 64.56C164.792 63.216 164.68 61.92 164.616 60.672C164.552 59.392 164.52 58.192 164.52 57.072V20.064H178.824ZM205.833 90H189.513V20.064H205.833V90ZM276.445 90H260.222C259.166 90 258.302 89.744 257.63 89.232C256.99 88.72 256.477 88.112 256.094 87.408L242.077 62.928C241.821 63.632 241.533 64.24 241.213 64.752L228.157 87.408C227.709 88.048 227.181 88.64 226.573 89.184C225.965 89.728 225.181 90 224.221 90H209.053L231.565 54L209.917 20.064H226.141C227.197 20.064 227.965 20.208 228.445 20.496C228.957 20.752 229.405 21.2 229.789 21.84L243.71 45.408C243.87 44.992 244.045 44.592 244.237 44.208C244.462 43.824 244.701 43.424 244.957 43.008L257.149 22.08C257.597 21.376 258.061 20.864 258.541 20.544C259.053 20.224 259.677 20.064 260.413 20.064H275.965L254.029 53.328L276.445 90ZM330.103 32.928H310.423V90H294.199V32.928H274.519V20.064H330.103V32.928ZM351.787 90H335.467V20.064H351.787V90ZM387.071 54.384C391.295 54.384 394.335 53.376 396.191 51.36C398.047 49.344 398.975 46.528 398.975 42.912C398.975 41.312 398.735 39.856 398.255 38.544C397.775 37.232 397.039 36.112 396.047 35.184C395.087 34.224 393.855 33.488 392.351 32.976C390.879 32.464 389.119 32.208 387.071 32.208H378.623V54.384H387.071ZM387.071 20.064C391.999 20.064 396.223 20.656 399.743 21.84C403.295 22.992 406.207 24.592 408.479 26.64C410.783 28.688 412.479 31.104 413.567 33.888C414.655 36.672 415.199 39.68 415.199 42.912C415.199 46.4 414.639 49.6 413.519 52.512C412.399 55.424 410.687 57.92 408.383 60C406.079 62.08 403.151 63.712 399.599 64.896C396.079 66.048 391.903 66.624 387.071 66.624H378.623V90H362.399V20.064H387.071ZM459.191 34.272C458.711 35.04 458.199 35.616 457.655 36C457.143 36.384 456.471 36.576 455.639 36.576C454.903 36.576 454.103 36.352 453.239 35.904C452.407 35.424 451.447 34.896 450.359 34.32C449.303 33.744 448.087 33.232 446.711 32.784C445.335 32.304 443.767 32.064 442.007 32.064C438.967 32.064 436.695 32.72 435.191 34.032C433.719 35.312 432.983 37.056 432.983 39.264C432.983 40.672 433.431 41.84 434.327 42.768C435.223 43.696 436.391 44.496 437.831 45.168C439.303 45.84 440.967 46.464 442.823 47.04C444.711 47.584 446.631 48.208 448.583 48.912C450.535 49.584 452.439 50.384 454.295 51.312C456.183 52.24 457.847 53.424 459.287 54.864C460.759 56.304 461.943 58.064 462.839 60.144C463.735 62.192 464.183 64.672 464.183 67.584C464.183 70.816 463.623 73.84 462.503 76.656C461.383 79.472 459.751 81.936 457.607 84.048C455.495 86.128 452.871 87.776 449.735 88.992C446.631 90.176 443.095 90.768 439.127 90.768C436.951 90.768 434.727 90.544 432.455 90.096C430.215 89.648 428.039 89.024 425.927 88.224C423.815 87.392 421.831 86.416 419.975 85.296C418.119 84.176 416.503 82.928 415.127 81.552L419.927 73.968C420.311 73.424 420.807 72.976 421.415 72.624C422.055 72.24 422.743 72.048 423.479 72.048C424.439 72.048 425.399 72.352 426.359 72.96C427.351 73.568 428.455 74.24 429.671 74.976C430.919 75.712 432.343 76.384 433.943 76.992C435.543 77.6 437.431 77.904 439.607 77.904C442.551 77.904 444.839 77.264 446.471 75.984C448.103 74.672 448.919 72.608 448.919 69.792C448.919 68.16 448.471 66.832 447.575 65.808C446.679 64.784 445.495 63.936 444.023 63.264C442.583 62.592 440.935 62 439.079 61.488C437.223 60.976 435.319 60.416 433.367 59.808C431.415 59.168 429.511 58.4 427.655 57.504C425.799 56.576 424.135 55.376 422.663 53.904C421.223 52.4 420.055 50.544 419.159 48.336C418.263 46.096 417.815 43.344 417.815 40.08C417.815 37.456 418.343 34.896 419.399 32.4C420.455 29.904 422.007 27.68 424.055 25.728C426.103 23.776 428.615 22.224 431.591 21.072C434.567 19.888 437.975 19.296 441.815 19.296C443.959 19.296 446.039 19.472 448.055 19.824C450.103 20.144 452.039 20.64 453.863 21.312C455.687 21.952 457.383 22.736 458.951 23.664C460.551 24.56 461.975 25.584 463.223 26.736L459.191 34.272Z" fill="url(#paint0_linear_637_2005)"/>
<path d="M0.646982 105L36.6629 35.5803L19.3022 0.00158528L39.7024 0.0015835C42.742 0.00158323 45.5478 1.76582 46.8922 4.52979L59.109 29.5819C60.921 33.3456 60.921 37.815 58.9921 41.5787L29.0587 100.474C26.6621 105.179 23.045 105 17.7842 105L0.646982 105Z" fill="url(#paint1_linear_637_2005)"/>
<path d="M36.6494 35.5555L19.3609 3.59171e-06L39.706 1.81309e-06C42.7625 1.54588e-06 45.5325 1.72973 46.8697 4.51651L59.0959 29.5976C60.9107 33.3453 60.9107 37.7657 59.0004 41.5135L31.3005 96.096C45.0549 68.9008 46.2011 55.1591 36.6494 35.5555Z" fill="url(#paint2_linear_637_2005)"/>
<path d="M73.5992 105C70.5555 105 67.7586 103.262 66.4424 100.49L54.2266 75.4132C52.3757 71.6477 52.4169 67.22 54.3089 63.4544L64.2625 43.923L94 105L73.5992 105Z" fill="url(#paint3_linear_637_2005)"/>
<defs>
<linearGradient id="paint0_linear_637_2005" x1="123" y1="39.9023" x2="449.45" y2="134.649" gradientUnits="userSpaceOnUse">
<stop stop-color="#2780D2"/>
<stop offset="1" stop-color="#396CE9"/>
</linearGradient>
<linearGradient id="paint1_linear_637_2005" x1="1.99992" y1="51.8705" x2="60.4533" y2="51.8705" gradientUnits="userSpaceOnUse">
<stop stop-color="#0B8AFF"/>
<stop offset="1" stop-color="#1140B9"/>
</linearGradient>
<linearGradient id="paint2_linear_637_2005" x1="39.8876" y1="1.79721e-06" x2="39.8876" y2="96.096" gradientUnits="userSpaceOnUse">
<stop stop-color="#509AF1"/>
<stop offset="1" stop-color="#2780D2"/>
</linearGradient>
<linearGradient id="paint3_linear_637_2005" x1="52.8693" y1="74.4611" x2="94" y2="74.4611" gradientUnits="userSpaceOnUse">
<stop stop-color="#508CFE"/>
<stop offset="1" stop-color="#3888FF"/>
</linearGradient>
</defs>
</svg>
