<?xml version="1.0" standalone="no"?>
<!DOCTYPE svg PUBLIC "-//W3C//DTD SVG 20010904//EN"
 "http://www.w3.org/TR/2001/REC-SVG-20010904/DTD/svg10.dtd">
<svg version="1.0" xmlns="http://www.w3.org/2000/svg"
 width="1072.000000pt" height="1072.000000pt" viewBox="0 0 1072.000000 1072.000000"
 preserveAspectRatio="xMidYMid meet">
<metadata>
Created by potrace 1.14, written by Peter Selinger 2001-2017
</metadata>
<g transform="translate(0.000000,1072.000000) scale(0.100000,-0.100000)"
fill="#000000" stroke="none">
<path d="M2520 10557 c0 -2 121 -251 268 -553 148 -302 301 -614 339 -694 39
-80 173 -354 298 -610 125 -256 268 -548 317 -650 50 -102 181 -369 291 -595
110 -225 200 -414 200 -420 0 -5 -140 -278 -310 -605 -170 -327 -500 -962
-733 -1410 -232 -448 -604 -1164 -825 -1590 -221 -426 -597 -1151 -835 -1610
-238 -459 -529 -1019 -646 -1245 l-213 -410 972 -3 c982 -3 1171 2 1323 33
191 40 336 137 446 298 40 59 150 271 568 1092 100 198 244 482 320 630 171
336 391 769 635 1250 103 204 227 447 275 540 48 94 192 377 320 630 128 253
256 505 285 560 29 55 166 325 305 600 139 275 270 532 290 570 137 252 189
470 177 745 -11 281 -18 299 -419 1120 -53 107 -243 497 -423 865 -539 1104
-529 1084 -590 1160 -92 116 -212 205 -341 251 -147 54 -154 54 -1265 54 -566
0 -1029 -2 -1029 -3z"/>
<path d="M6945 6150 c-44 -88 -757 -1485 -867 -1699 -126 -248 -153 -310 -190
-451 -26 -99 -31 -138 -35 -280 -6 -182 5 -273 52 -435 27 -93 60 -162 590
-1250 161 -330 390 -799 508 -1042 119 -244 230 -464 248 -490 123 -180 332
-304 560 -333 94 -11 2099 -15 2099 -3 0 7 -75 163 -480 993 -117 239 -339
696 -495 1015 -155 319 -415 852 -578 1185 -162 333 -379 778 -482 990 -103
212 -323 662 -488 1000 -165 338 -326 669 -357 735 l-57 120 -28 -55z"/>
</g>
</svg>
