<?xml version="1.0" standalone="no"?>
<!DOCTYPE svg PUBLIC "-//W3C//DTD SVG 20010904//EN"
 "http://www.w3.org/TR/2001/REC-SVG-20010904/DTD/svg10.dtd">
<svg version="1.0" xmlns="http://www.w3.org/2000/svg"
 width="160.000000pt" height="160.000000pt" viewBox="0 0 160.000000 160.000000"
 preserveAspectRatio="xMidYMid meet">
<metadata>
Created by potrace 1.14, written by Peter Selinger 2001-2017
</metadata>
<g transform="translate(0.000000,160.000000) scale(0.100000,-0.100000)"
fill="#000000" stroke="none">
<path d="M180 1163 c99 -164 185 -299 190 -301 5 -2 145 78 310 177 166 100
305 181 309 181 4 0 77 -52 161 -115 84 -63 157 -115 160 -115 4 0 61 89 126
197 66 109 129 215 142 235 l23 38 -800 0 -801 0 180 -297z"/>
<path d="M750 830 c-129 -115 -234 -213 -233 -218 4 -17 273 -457 282 -460 7
-2 401 638 401 653 0 7 -200 228 -210 232 -3 1 -111 -92 -240 -207z"/>
</g>
</svg>
